<svg width="296" height="112" viewBox="0 0 296 112" fill="none" xmlns="http://www.w3.org/2000/svg">
<g filter="url(#filter0_ddd_1_343)">
<rect x="21" y="21" width="240" height="60" rx="6" fill="url(#paint0_linear_1_343)"/>
</g>
<path d="M91.2559 53.3711H93.6973C93.6191 54.3021 93.3587 55.1322 92.916 55.8613C92.4733 56.584 91.8516 57.1536 91.0508 57.5703C90.25 57.987 89.2767 58.1953 88.1309 58.1953C87.252 58.1953 86.4609 58.0391 85.7578 57.7266C85.0547 57.4076 84.4525 56.9583 83.9512 56.3789C83.4499 55.793 83.0658 55.0866 82.7988 54.2598C82.5384 53.4329 82.4082 52.5085 82.4082 51.4863V50.3047C82.4082 49.2826 82.5417 48.3581 82.8086 47.5312C83.082 46.7044 83.4727 45.998 83.9805 45.4121C84.4883 44.8197 85.097 44.3672 85.8066 44.0547C86.5228 43.7422 87.3268 43.5859 88.2188 43.5859C89.3516 43.5859 90.3086 43.7943 91.0898 44.2109C91.8711 44.6276 92.4766 45.2038 92.9062 45.9395C93.3424 46.6751 93.6094 47.5182 93.707 48.4688H91.2656C91.2005 47.8568 91.0573 47.3327 90.8359 46.8965C90.6211 46.4603 90.3021 46.1283 89.8789 45.9004C89.4557 45.666 88.9023 45.5488 88.2188 45.5488C87.6589 45.5488 87.1706 45.653 86.7539 45.8613C86.3372 46.0697 85.9889 46.3757 85.709 46.7793C85.429 47.1829 85.2174 47.681 85.0742 48.2734C84.9375 48.8594 84.8691 49.5299 84.8691 50.2852V51.4863C84.8691 52.2025 84.931 52.8535 85.0547 53.4395C85.1849 54.0189 85.3802 54.5169 85.6406 54.9336C85.9076 55.3503 86.2461 55.6725 86.6562 55.9004C87.0664 56.1283 87.5579 56.2422 88.1309 56.2422C88.8275 56.2422 89.3906 56.1315 89.8203 55.9102C90.2565 55.6888 90.5853 55.3665 90.8066 54.9434C91.0345 54.5137 91.1842 53.9896 91.2559 53.3711ZM98.0527 49.4453V58H95.6992V47.4336H97.9453L98.0527 49.4453ZM101.285 47.3652L101.266 49.5527C101.122 49.5267 100.966 49.5072 100.797 49.4941C100.634 49.4811 100.471 49.4746 100.309 49.4746C99.9049 49.4746 99.5501 49.5332 99.2441 49.6504C98.9382 49.7611 98.681 49.9238 98.4727 50.1387C98.2708 50.347 98.1146 50.6009 98.0039 50.9004C97.8932 51.1999 97.8281 51.5352 97.8086 51.9062L97.2715 51.9453C97.2715 51.2812 97.3366 50.666 97.4668 50.0996C97.597 49.5332 97.7923 49.0352 98.0527 48.6055C98.3197 48.1758 98.6517 47.8405 99.0488 47.5996C99.4525 47.3587 99.918 47.2383 100.445 47.2383C100.589 47.2383 100.742 47.2513 100.904 47.2773C101.074 47.3034 101.201 47.3327 101.285 47.3652ZM107.223 58.1953C106.441 58.1953 105.735 58.0684 105.104 57.8145C104.479 57.554 103.945 57.1927 103.502 56.7305C103.066 56.2682 102.73 55.7246 102.496 55.0996C102.262 54.4746 102.145 53.8008 102.145 53.0781V52.6875C102.145 51.8607 102.265 51.112 102.506 50.4414C102.747 49.7708 103.082 49.1979 103.512 48.7227C103.941 48.2409 104.449 47.873 105.035 47.6191C105.621 47.3652 106.256 47.2383 106.939 47.2383C107.695 47.2383 108.355 47.3652 108.922 47.6191C109.488 47.873 109.957 48.2311 110.328 48.6934C110.706 49.1491 110.986 49.6927 111.168 50.3242C111.357 50.9557 111.451 51.6523 111.451 52.4141V53.4199H103.287V51.7305H109.127V51.5449C109.114 51.1217 109.029 50.7246 108.873 50.3535C108.723 49.9824 108.492 49.6829 108.18 49.4551C107.867 49.2272 107.451 49.1133 106.93 49.1133C106.539 49.1133 106.191 49.1979 105.885 49.3672C105.585 49.5299 105.335 49.7676 105.133 50.0801C104.931 50.3926 104.775 50.7702 104.664 51.2129C104.56 51.6491 104.508 52.1406 104.508 52.6875V53.0781C104.508 53.5404 104.57 53.9701 104.693 54.3672C104.824 54.7578 105.012 55.0996 105.26 55.3926C105.507 55.6855 105.807 55.9167 106.158 56.0859C106.51 56.2487 106.91 56.3301 107.359 56.3301C107.926 56.3301 108.43 56.2161 108.873 55.9883C109.316 55.7604 109.7 55.4382 110.025 55.0215L111.266 56.2227C111.038 56.5547 110.742 56.8737 110.377 57.1797C110.012 57.4792 109.566 57.7233 109.039 57.9121C108.518 58.1009 107.913 58.1953 107.223 58.1953ZM119.244 55.8809V50.8418C119.244 50.4642 119.176 50.1387 119.039 49.8652C118.902 49.5918 118.694 49.3802 118.414 49.2305C118.141 49.0807 117.796 49.0059 117.379 49.0059C116.995 49.0059 116.663 49.071 116.383 49.2012C116.103 49.3314 115.885 49.5072 115.729 49.7285C115.572 49.9499 115.494 50.2005 115.494 50.4805H113.15C113.15 50.0638 113.251 49.6602 113.453 49.2695C113.655 48.8789 113.948 48.5306 114.332 48.2246C114.716 47.9186 115.175 47.6777 115.709 47.502C116.243 47.3262 116.842 47.2383 117.506 47.2383C118.3 47.2383 119.003 47.3717 119.615 47.6387C120.234 47.9056 120.719 48.3092 121.07 48.8496C121.428 49.3835 121.607 50.054 121.607 50.8613V55.5586C121.607 56.0404 121.64 56.4733 121.705 56.8574C121.777 57.235 121.878 57.5638 122.008 57.8438V58H119.596C119.485 57.7461 119.397 57.4238 119.332 57.0332C119.273 56.6361 119.244 56.252 119.244 55.8809ZM119.586 51.5742L119.605 53.0293H117.916C117.48 53.0293 117.096 53.0716 116.764 53.1562C116.432 53.2344 116.155 53.3516 115.934 53.5078C115.712 53.6641 115.546 53.8529 115.436 54.0742C115.325 54.2956 115.27 54.5462 115.27 54.8262C115.27 55.1061 115.335 55.3633 115.465 55.5977C115.595 55.8255 115.784 56.0046 116.031 56.1348C116.285 56.265 116.591 56.3301 116.949 56.3301C117.431 56.3301 117.851 56.2324 118.209 56.0371C118.574 55.8353 118.86 55.5911 119.068 55.3047C119.277 55.0117 119.387 54.735 119.4 54.4746L120.162 55.5195C120.084 55.7865 119.951 56.0729 119.762 56.3789C119.573 56.6849 119.326 56.9779 119.02 57.2578C118.72 57.5312 118.359 57.7559 117.936 57.9316C117.519 58.1074 117.037 58.1953 116.49 58.1953C115.8 58.1953 115.185 58.0586 114.645 57.7852C114.104 57.5052 113.681 57.1309 113.375 56.6621C113.069 56.1868 112.916 55.6497 112.916 55.0508C112.916 54.4909 113.02 53.9961 113.229 53.5664C113.443 53.1302 113.756 52.7656 114.166 52.4727C114.583 52.1797 115.09 51.9583 115.689 51.8086C116.288 51.6523 116.972 51.5742 117.74 51.5742H119.586ZM128.912 47.4336V49.1523H122.955V47.4336H128.912ZM124.674 44.8457H127.027V55.0801C127.027 55.4056 127.073 55.6562 127.164 55.832C127.262 56.0013 127.395 56.1152 127.564 56.1738C127.734 56.2324 127.932 56.2617 128.16 56.2617C128.323 56.2617 128.479 56.252 128.629 56.2324C128.779 56.2129 128.899 56.1934 128.99 56.1738L129 57.9707C128.805 58.0293 128.577 58.0814 128.316 58.127C128.062 58.1725 127.77 58.1953 127.438 58.1953C126.897 58.1953 126.419 58.1009 126.002 57.9121C125.585 57.7168 125.26 57.401 125.025 56.9648C124.791 56.5286 124.674 55.9492 124.674 55.2266V44.8457ZM135.387 58.1953C134.605 58.1953 133.899 58.0684 133.268 57.8145C132.643 57.554 132.109 57.1927 131.666 56.7305C131.23 56.2682 130.895 55.7246 130.66 55.0996C130.426 54.4746 130.309 53.8008 130.309 53.0781V52.6875C130.309 51.8607 130.429 51.112 130.67 50.4414C130.911 49.7708 131.246 49.1979 131.676 48.7227C132.105 48.2409 132.613 47.873 133.199 47.6191C133.785 47.3652 134.42 47.2383 135.104 47.2383C135.859 47.2383 136.52 47.3652 137.086 47.6191C137.652 47.873 138.121 48.2311 138.492 48.6934C138.87 49.1491 139.15 49.6927 139.332 50.3242C139.521 50.9557 139.615 51.6523 139.615 52.4141V53.4199H131.451V51.7305H137.291V51.5449C137.278 51.1217 137.193 50.7246 137.037 50.3535C136.887 49.9824 136.656 49.6829 136.344 49.4551C136.031 49.2272 135.615 49.1133 135.094 49.1133C134.703 49.1133 134.355 49.1979 134.049 49.3672C133.749 49.5299 133.499 49.7676 133.297 50.0801C133.095 50.3926 132.939 50.7702 132.828 51.2129C132.724 51.6491 132.672 52.1406 132.672 52.6875V53.0781C132.672 53.5404 132.734 53.9701 132.857 54.3672C132.988 54.7578 133.176 55.0996 133.424 55.3926C133.671 55.6855 133.971 55.9167 134.322 56.0859C134.674 56.2487 135.074 56.3301 135.523 56.3301C136.09 56.3301 136.594 56.2161 137.037 55.9883C137.48 55.7604 137.864 55.4382 138.189 55.0215L139.43 56.2227C139.202 56.5547 138.906 56.8737 138.541 57.1797C138.176 57.4792 137.73 57.7233 137.203 57.9121C136.682 58.1009 136.077 58.1953 135.387 58.1953ZM157.945 43.7812V58H155.494L149.117 47.8145V58H146.666V43.7812H149.117L155.514 53.9863V43.7812H157.945ZM165.289 58.1953C164.508 58.1953 163.801 58.0684 163.17 57.8145C162.545 57.554 162.011 57.1927 161.568 56.7305C161.132 56.2682 160.797 55.7246 160.562 55.0996C160.328 54.4746 160.211 53.8008 160.211 53.0781V52.6875C160.211 51.8607 160.331 51.112 160.572 50.4414C160.813 49.7708 161.148 49.1979 161.578 48.7227C162.008 48.2409 162.516 47.873 163.102 47.6191C163.688 47.3652 164.322 47.2383 165.006 47.2383C165.761 47.2383 166.422 47.3652 166.988 47.6191C167.555 47.873 168.023 48.2311 168.395 48.6934C168.772 49.1491 169.052 49.6927 169.234 50.3242C169.423 50.9557 169.518 51.6523 169.518 52.4141V53.4199H161.354V51.7305H167.193V51.5449C167.18 51.1217 167.096 50.7246 166.939 50.3535C166.79 49.9824 166.559 49.6829 166.246 49.4551C165.934 49.2272 165.517 49.1133 164.996 49.1133C164.605 49.1133 164.257 49.1979 163.951 49.3672C163.652 49.5299 163.401 49.7676 163.199 50.0801C162.997 50.3926 162.841 50.7702 162.73 51.2129C162.626 51.6491 162.574 52.1406 162.574 52.6875V53.0781C162.574 53.5404 162.636 53.9701 162.76 54.3672C162.89 54.7578 163.079 55.0996 163.326 55.3926C163.574 55.6855 163.873 55.9167 164.225 56.0859C164.576 56.2487 164.977 56.3301 165.426 56.3301C165.992 56.3301 166.497 56.2161 166.939 55.9883C167.382 55.7604 167.766 55.4382 168.092 55.0215L169.332 56.2227C169.104 56.5547 168.808 56.8737 168.443 57.1797C168.079 57.4792 167.633 57.7233 167.105 57.9121C166.585 58.1009 165.979 58.1953 165.289 58.1953ZM174.225 55.6562L176.666 47.4336H178.17L177.76 49.8945L175.299 58H173.951L174.225 55.6562ZM172.789 47.4336L174.693 55.6953L174.85 58H173.346L170.484 47.4336H172.789ZM180.455 55.5977L182.301 47.4336H184.596L181.744 58H180.24L180.455 55.5977ZM178.424 47.4336L180.836 55.5586L181.139 58H179.791L177.301 49.8848L176.891 47.4336H178.424ZM199.811 53.3711H202.252C202.174 54.3021 201.913 55.1322 201.471 55.8613C201.028 56.584 200.406 57.1536 199.605 57.5703C198.805 57.987 197.831 58.1953 196.686 58.1953C195.807 58.1953 195.016 58.0391 194.312 57.7266C193.609 57.4076 193.007 56.9583 192.506 56.3789C192.005 55.793 191.62 55.0866 191.354 54.2598C191.093 53.4329 190.963 52.5085 190.963 51.4863V50.3047C190.963 49.2826 191.096 48.3581 191.363 47.5312C191.637 46.7044 192.027 45.998 192.535 45.4121C193.043 44.8197 193.652 44.3672 194.361 44.0547C195.077 43.7422 195.882 43.5859 196.773 43.5859C197.906 43.5859 198.863 43.7943 199.645 44.2109C200.426 44.6276 201.031 45.2038 201.461 45.9395C201.897 46.6751 202.164 47.5182 202.262 48.4688H199.82C199.755 47.8568 199.612 47.3327 199.391 46.8965C199.176 46.4603 198.857 46.1283 198.434 45.9004C198.01 45.666 197.457 45.5488 196.773 45.5488C196.214 45.5488 195.725 45.653 195.309 45.8613C194.892 46.0697 194.544 46.3757 194.264 46.7793C193.984 47.1829 193.772 47.681 193.629 48.2734C193.492 48.8594 193.424 49.5299 193.424 50.2852V51.4863C193.424 52.2025 193.486 52.8535 193.609 53.4395C193.74 54.0189 193.935 54.5169 194.195 54.9336C194.462 55.3503 194.801 55.6725 195.211 55.9004C195.621 56.1283 196.113 56.2422 196.686 56.2422C197.382 56.2422 197.945 56.1315 198.375 55.9102C198.811 55.6888 199.14 55.3665 199.361 54.9434C199.589 54.5137 199.739 53.9896 199.811 53.3711ZM206.568 43V58H204.225V43H206.568ZM206.158 52.3262L205.396 52.3164C205.403 51.5872 205.504 50.9134 205.699 50.2949C205.901 49.6764 206.181 49.1393 206.539 48.6836C206.904 48.2214 207.34 47.8665 207.848 47.6191C208.355 47.3652 208.919 47.2383 209.537 47.2383C210.058 47.2383 210.527 47.3099 210.943 47.4531C211.367 47.5964 211.731 47.8275 212.037 48.1465C212.343 48.459 212.574 48.8691 212.73 49.377C212.893 49.8783 212.975 50.4902 212.975 51.2129V58H210.611V51.1934C210.611 50.6855 210.536 50.2819 210.387 49.9824C210.243 49.6829 210.032 49.4681 209.752 49.3379C209.472 49.2012 209.13 49.1328 208.727 49.1328C208.303 49.1328 207.929 49.2174 207.604 49.3867C207.285 49.556 207.018 49.7871 206.803 50.0801C206.588 50.373 206.425 50.7116 206.314 51.0957C206.21 51.4798 206.158 51.89 206.158 52.3262ZM221.314 55.8809V50.8418C221.314 50.4642 221.246 50.1387 221.109 49.8652C220.973 49.5918 220.764 49.3802 220.484 49.2305C220.211 49.0807 219.866 49.0059 219.449 49.0059C219.065 49.0059 218.733 49.071 218.453 49.2012C218.173 49.3314 217.955 49.5072 217.799 49.7285C217.643 49.9499 217.564 50.2005 217.564 50.4805H215.221C215.221 50.0638 215.322 49.6602 215.523 49.2695C215.725 48.8789 216.018 48.5306 216.402 48.2246C216.786 47.9186 217.245 47.6777 217.779 47.502C218.313 47.3262 218.912 47.2383 219.576 47.2383C220.37 47.2383 221.074 47.3717 221.686 47.6387C222.304 47.9056 222.789 48.3092 223.141 48.8496C223.499 49.3835 223.678 50.054 223.678 50.8613V55.5586C223.678 56.0404 223.71 56.4733 223.775 56.8574C223.847 57.235 223.948 57.5638 224.078 57.8438V58H221.666C221.555 57.7461 221.467 57.4238 221.402 57.0332C221.344 56.6361 221.314 56.252 221.314 55.8809ZM221.656 51.5742L221.676 53.0293H219.986C219.55 53.0293 219.166 53.0716 218.834 53.1562C218.502 53.2344 218.225 53.3516 218.004 53.5078C217.783 53.6641 217.617 53.8529 217.506 54.0742C217.395 54.2956 217.34 54.5462 217.34 54.8262C217.34 55.1061 217.405 55.3633 217.535 55.5977C217.665 55.8255 217.854 56.0046 218.102 56.1348C218.355 56.265 218.661 56.3301 219.02 56.3301C219.501 56.3301 219.921 56.2324 220.279 56.0371C220.644 55.8353 220.93 55.5911 221.139 55.3047C221.347 55.0117 221.458 54.735 221.471 54.4746L222.232 55.5195C222.154 55.7865 222.021 56.0729 221.832 56.3789C221.643 56.6849 221.396 56.9779 221.09 57.2578C220.79 57.5312 220.429 57.7559 220.006 57.9316C219.589 58.1074 219.107 58.1953 218.561 58.1953C217.87 58.1953 217.255 58.0586 216.715 57.7852C216.174 57.5052 215.751 57.1309 215.445 56.6621C215.139 56.1868 214.986 55.6497 214.986 55.0508C214.986 54.4909 215.09 53.9961 215.299 53.5664C215.514 53.1302 215.826 52.7656 216.236 52.4727C216.653 52.1797 217.161 51.9583 217.76 51.8086C218.359 51.6523 219.042 51.5742 219.811 51.5742H221.656ZM230.982 47.4336V49.1523H225.025V47.4336H230.982ZM226.744 44.8457H229.098V55.0801C229.098 55.4056 229.143 55.6562 229.234 55.832C229.332 56.0013 229.465 56.1152 229.635 56.1738C229.804 56.2324 230.003 56.2617 230.23 56.2617C230.393 56.2617 230.549 56.252 230.699 56.2324C230.849 56.2129 230.969 56.1934 231.061 56.1738L231.07 57.9707C230.875 58.0293 230.647 58.0814 230.387 58.127C230.133 58.1725 229.84 58.1953 229.508 58.1953C228.967 58.1953 228.489 58.1009 228.072 57.9121C227.656 57.7168 227.33 57.401 227.096 56.9648C226.861 56.5286 226.744 55.9492 226.744 55.2266V44.8457Z" fill="white"/>
<path fill-rule="evenodd" clip-rule="evenodd" d="M65 50H59V44C59 43.447 58.552 43 58 43C57.448 43 57 43.447 57 44V50H51C50.448 50 50 50.447 50 51C50 51.553 50.448 52 51 52H57V58C57 58.553 57.448 59 58 59C58.552 59 59 58.553 59 58V52H65C65.552 52 66 51.553 66 51C66 50.447 65.552 50 65 50Z" fill="#231F20"/>
<mask id="mask0_1_343" style="mask-type:luminance" maskUnits="userSpaceOnUse" x="50" y="43" width="16" height="16">
<path fill-rule="evenodd" clip-rule="evenodd" d="M65 50H59V44C59 43.447 58.552 43 58 43C57.448 43 57 43.447 57 44V50H51C50.448 50 50 50.447 50 51C50 51.553 50.448 52 51 52H57V58C57 58.553 57.448 59 58 59C58.552 59 59 58.553 59 58V52H65C65.552 52 66 51.553 66 51C66 50.447 65.552 50 65 50Z" fill="white"/>
</mask>
<g mask="url(#mask0_1_343)">
<rect x="46" y="39" width="24" height="24" fill="white"/>
</g>
<defs>
<filter id="filter0_ddd_1_343" x="0" y="0" width="296" height="112" filterUnits="userSpaceOnUse" color-interpolation-filters="sRGB">
<feFlood flood-opacity="0" result="BackgroundImageFix"/>
<feColorMatrix in="SourceAlpha" type="matrix" values="0 0 0 0 0 0 0 0 0 0 0 0 0 0 0 0 0 0 127 0" result="hardAlpha"/>
<feOffset dx="10" dy="6"/>
<feGaussianBlur stdDeviation="12.5"/>
<feColorMatrix type="matrix" values="0 0 0 0 0.164706 0 0 0 0 0.545098 0 0 0 0 0.94902 0 0 0 0.15 0"/>
<feBlend mode="normal" in2="BackgroundImageFix" result="effect1_dropShadow_1_343"/>
<feColorMatrix in="SourceAlpha" type="matrix" values="0 0 0 0 0 0 0 0 0 0 0 0 0 0 0 0 0 0 127 0" result="hardAlpha"/>
<feOffset dx="4" dy="4"/>
<feGaussianBlur stdDeviation="12.5"/>
<feColorMatrix type="matrix" values="0 0 0 0 0.164706 0 0 0 0 0.545098 0 0 0 0 0.94902 0 0 0 0.05 0"/>
<feBlend mode="normal" in2="effect1_dropShadow_1_343" result="effect2_dropShadow_1_343"/>
<feColorMatrix in="SourceAlpha" type="matrix" values="0 0 0 0 0 0 0 0 0 0 0 0 0 0 0 0 0 0 127 0" result="hardAlpha"/>
<feOffset dx="6" dy="6"/>
<feGaussianBlur stdDeviation="12.5"/>
<feColorMatrix type="matrix" values="0 0 0 0 0.164706 0 0 0 0 0.545098 0 0 0 0 0.94902 0 0 0 0.15 0"/>
<feBlend mode="normal" in2="effect2_dropShadow_1_343" result="effect3_dropShadow_1_343"/>
<feBlend mode="normal" in="SourceGraphic" in2="effect3_dropShadow_1_343" result="shape"/>
</filter>
<linearGradient id="paint0_linear_1_343" x1="21" y1="21" x2="263.722" y2="66.4731" gradientUnits="userSpaceOnUse">
<stop stop-color="#7CB8F7"/>
<stop offset="1" stop-color="#2A8BF2"/>
</linearGradient>
</defs>
</svg>
