<svg width="616" height="112" viewBox="0 0 616 112" fill="none" xmlns="http://www.w3.org/2000/svg">
<path d="M17.7188 36.668H22.1133C21.9727 38.3438 21.5039 39.8379 20.707 41.1504C19.9102 42.4512 18.791 43.4766 17.3496 44.2266C15.9082 44.9766 14.1562 45.3516 12.0938 45.3516C10.5117 45.3516 9.08789 45.0703 7.82227 44.5078C6.55664 43.9336 5.47266 43.125 4.57031 42.082C3.66797 41.0273 2.97656 39.7559 2.49609 38.2676C2.02734 36.7793 1.79297 35.1152 1.79297 33.2754V31.1484C1.79297 29.3086 2.0332 27.6445 2.51367 26.1562C3.00586 24.668 3.70898 23.3965 4.62305 22.3418C5.53711 21.2754 6.63281 20.4609 7.91016 19.8984C9.19922 19.3359 10.6465 19.0547 12.252 19.0547C14.291 19.0547 16.0137 19.4297 17.4199 20.1797C18.8262 20.9297 19.916 21.9668 20.6895 23.291C21.4746 24.6152 21.9551 26.1328 22.1309 27.8438H17.7363C17.6191 26.7422 17.3613 25.7988 16.9629 25.0137C16.5762 24.2285 16.002 23.6309 15.2402 23.2207C14.4785 22.7988 13.4824 22.5879 12.252 22.5879C11.2441 22.5879 10.3652 22.7754 9.61523 23.1504C8.86523 23.5254 8.23828 24.0762 7.73438 24.8027C7.23047 25.5293 6.84961 26.4258 6.5918 27.4922C6.3457 28.5469 6.22266 29.7539 6.22266 31.1133V33.2754C6.22266 34.5645 6.33398 35.7363 6.55664 36.791C6.79102 37.834 7.14258 38.7305 7.61133 39.4805C8.0918 40.2305 8.70117 40.8105 9.43945 41.2207C10.1777 41.6309 11.0625 41.8359 12.0938 41.8359C13.3477 41.8359 14.3613 41.6367 15.1348 41.2383C15.9199 40.8398 16.5117 40.2598 16.9102 39.498C17.3203 38.7246 17.5898 37.7812 17.7188 36.668ZM30.2428 18V45H26.0241V18H30.2428ZM29.5045 34.7871L28.1334 34.7695C28.1452 33.457 28.3268 32.2441 28.6784 31.1309C29.0416 30.0176 29.5455 29.0508 30.1901 28.2305C30.8463 27.3984 31.6315 26.7598 32.5455 26.3145C33.4596 25.8574 34.4733 25.6289 35.5866 25.6289C36.5241 25.6289 37.3678 25.7578 38.1178 26.0156C38.8795 26.2734 39.5358 26.6895 40.0866 27.2637C40.6373 27.8262 41.0534 28.5645 41.3346 29.4785C41.6276 30.3809 41.7741 31.4824 41.7741 32.7832V45H37.5202V32.748C37.5202 31.834 37.3854 31.1074 37.1159 30.5684C36.858 30.0293 36.4772 29.6426 35.9733 29.4082C35.4694 29.1621 34.8541 29.0391 34.1276 29.0391C33.3659 29.0391 32.692 29.1914 32.1061 29.4961C31.5319 29.8008 31.0514 30.2168 30.6647 30.7441C30.278 31.2715 29.985 31.8809 29.7858 32.5723C29.5983 33.2637 29.5045 34.002 29.5045 34.7871ZM57.1458 41.1855V32.1152C57.1458 31.4355 57.0227 30.8496 56.7766 30.3574C56.5305 29.8652 56.1555 29.4844 55.6516 29.2148C55.1595 28.9453 54.5384 28.8105 53.7884 28.8105C53.097 28.8105 52.4993 28.9277 51.9954 29.1621C51.4915 29.3965 51.0989 29.7129 50.8177 30.1113C50.5364 30.5098 50.3958 30.9609 50.3958 31.4648H46.177C46.177 30.7148 46.3587 29.9883 46.722 29.2852C47.0852 28.582 47.6126 27.9551 48.304 27.4043C48.9954 26.8535 49.8216 26.4199 50.7825 26.1035C51.7434 25.7871 52.8216 25.6289 54.0169 25.6289C55.4466 25.6289 56.7122 25.8691 57.8138 26.3496C58.927 26.8301 59.8001 27.5566 60.4329 28.5293C61.0774 29.4902 61.3997 30.6973 61.3997 32.1504V40.6055C61.3997 41.4727 61.4583 42.252 61.5755 42.9434C61.7044 43.623 61.886 44.2148 62.1204 44.7188V45H57.7786C57.5794 44.543 57.4212 43.9629 57.304 43.2598C57.1985 42.5449 57.1458 41.8535 57.1458 41.1855ZM57.761 33.4336L57.7962 36.0527H54.7552C53.97 36.0527 53.2786 36.1289 52.6809 36.2812C52.0833 36.4219 51.5852 36.6328 51.1868 36.9141C50.7884 37.1953 50.4895 37.5352 50.2903 37.9336C50.0911 38.332 49.9915 38.7832 49.9915 39.2871C49.9915 39.791 50.1087 40.2539 50.343 40.6758C50.5774 41.0859 50.9173 41.4082 51.3626 41.6426C51.8196 41.877 52.3704 41.9941 53.0149 41.9941C53.8821 41.9941 54.638 41.8184 55.2825 41.4668C55.9388 41.1035 56.4544 40.6641 56.8294 40.1484C57.2044 39.6211 57.4036 39.123 57.427 38.6543L58.7981 40.5352C58.6575 41.0156 58.4173 41.5312 58.0774 42.082C57.7376 42.6328 57.2923 43.1602 56.7415 43.6641C56.2024 44.1562 55.552 44.5605 54.7903 44.877C54.0403 45.1934 53.1731 45.3516 52.1888 45.3516C50.9466 45.3516 49.8391 45.1055 48.8665 44.6133C47.8938 44.1094 47.1321 43.4355 46.5813 42.5918C46.0305 41.7363 45.7552 40.7695 45.7552 39.6914C45.7552 38.6836 45.9427 37.793 46.3177 37.0195C46.7044 36.2344 47.2669 35.5781 48.0052 35.0508C48.7552 34.5234 49.6692 34.125 50.7473 33.8555C51.8255 33.5742 53.0559 33.4336 54.4388 33.4336H57.761ZM74.9081 25.9805V29.0742H64.1855V25.9805H74.9081ZM67.2792 21.3223H71.5155V39.7441C71.5155 40.3301 71.5976 40.7812 71.7616 41.0977C71.9374 41.4023 72.1777 41.6074 72.4823 41.7129C72.787 41.8184 73.1445 41.8711 73.5546 41.8711C73.8476 41.8711 74.1288 41.8535 74.3984 41.8184C74.6679 41.7832 74.8847 41.748 75.0488 41.7129L75.0663 44.9473C74.7148 45.0527 74.3046 45.1465 73.8359 45.2285C73.3788 45.3105 72.8515 45.3516 72.2538 45.3516C71.2812 45.3516 70.4198 45.1816 69.6698 44.8418C68.9198 44.4902 68.3339 43.9219 67.912 43.1367C67.4902 42.3516 67.2792 41.3086 67.2792 40.0078V21.3223ZM89.2076 39.8496C89.2076 39.4277 89.1021 39.0469 88.8912 38.707C88.6802 38.3555 88.2759 38.0391 87.6783 37.7578C87.0923 37.4766 86.2252 37.2188 85.0767 36.9844C84.0689 36.7617 83.1431 36.498 82.2994 36.1934C81.4673 35.877 80.7525 35.4961 80.1548 35.0508C79.5572 34.6055 79.0943 34.0781 78.7662 33.4688C78.438 32.8594 78.274 32.1562 78.274 31.3594C78.274 30.5859 78.4439 29.8535 78.7838 29.1621C79.1236 28.4707 79.6099 27.8613 80.2427 27.334C80.8755 26.8066 81.6431 26.3906 82.5455 26.0859C83.4595 25.7812 84.4791 25.6289 85.6041 25.6289C87.1978 25.6289 88.563 25.8984 89.6998 26.4375C90.8482 26.9648 91.7271 27.6855 92.3365 28.5996C92.9459 29.502 93.2505 30.5215 93.2505 31.6582H89.0142C89.0142 31.1543 88.8853 30.6855 88.6275 30.252C88.3814 29.8066 88.0064 29.4492 87.5025 29.1797C86.9986 28.8984 86.3658 28.7578 85.6041 28.7578C84.8775 28.7578 84.274 28.875 83.7935 29.1094C83.3248 29.332 82.9732 29.625 82.7388 29.9883C82.5162 30.3516 82.4048 30.75 82.4048 31.1836C82.4048 31.5 82.4634 31.7871 82.5806 32.0449C82.7095 32.291 82.9205 32.5195 83.2134 32.7305C83.5064 32.9297 83.9048 33.1172 84.4088 33.293C84.9244 33.4688 85.5689 33.6387 86.3423 33.8027C87.7955 34.1074 89.0435 34.5 90.0865 34.9805C91.1412 35.4492 91.9498 36.0586 92.5123 36.8086C93.0748 37.5469 93.356 38.4844 93.356 39.6211C93.356 40.4648 93.1744 41.2383 92.8111 41.9414C92.4595 42.6328 91.9439 43.2363 91.2642 43.752C90.5845 44.2559 89.7701 44.6484 88.8209 44.9297C87.8834 45.2109 86.8287 45.3516 85.6568 45.3516C83.9341 45.3516 82.4752 45.0469 81.2798 44.4375C80.0845 43.8164 79.1763 43.0254 78.5552 42.0645C77.9459 41.0918 77.6412 40.084 77.6412 39.041H81.7369C81.7838 39.8262 82.0005 40.4531 82.3873 40.9219C82.7857 41.3789 83.2779 41.7129 83.8638 41.9238C84.4615 42.123 85.0767 42.2227 85.7095 42.2227C86.4713 42.2227 87.1099 42.123 87.6255 41.9238C88.1412 41.7129 88.5338 41.4316 88.8033 41.0801C89.0728 40.7168 89.2076 40.3066 89.2076 39.8496Z" fill="#0D1C2E"/>
<g filter="url(#filter0_ddd_1_338)">
<rect x="341" y="21" width="240" height="60" rx="6" fill="url(#paint0_linear_1_338)"/>
</g>
<path d="M411.256 53.3711H413.697C413.619 54.3021 413.359 55.1322 412.916 55.8613C412.473 56.584 411.852 57.1536 411.051 57.5703C410.25 57.987 409.277 58.1953 408.131 58.1953C407.252 58.1953 406.461 58.0391 405.758 57.7266C405.055 57.4076 404.452 56.9583 403.951 56.3789C403.45 55.793 403.066 55.0866 402.799 54.2598C402.538 53.4329 402.408 52.5085 402.408 51.4863V50.3047C402.408 49.2826 402.542 48.3581 402.809 47.5312C403.082 46.7044 403.473 45.998 403.98 45.4121C404.488 44.8197 405.097 44.3672 405.807 44.0547C406.523 43.7422 407.327 43.5859 408.219 43.5859C409.352 43.5859 410.309 43.7943 411.09 44.2109C411.871 44.6276 412.477 45.2038 412.906 45.9395C413.342 46.6751 413.609 47.5182 413.707 48.4688H411.266C411.201 47.8568 411.057 47.3327 410.836 46.8965C410.621 46.4603 410.302 46.1283 409.879 45.9004C409.456 45.666 408.902 45.5488 408.219 45.5488C407.659 45.5488 407.171 45.653 406.754 45.8613C406.337 46.0697 405.989 46.3757 405.709 46.7793C405.429 47.1829 405.217 47.681 405.074 48.2734C404.938 48.8594 404.869 49.5299 404.869 50.2852V51.4863C404.869 52.2025 404.931 52.8535 405.055 53.4395C405.185 54.0189 405.38 54.5169 405.641 54.9336C405.908 55.3503 406.246 55.6725 406.656 55.9004C407.066 56.1283 407.558 56.2422 408.131 56.2422C408.827 56.2422 409.391 56.1315 409.82 55.9102C410.257 55.6888 410.585 55.3665 410.807 54.9434C411.035 54.5137 411.184 53.9896 411.256 53.3711ZM418.053 49.4453V58H415.699V47.4336H417.945L418.053 49.4453ZM421.285 47.3652L421.266 49.5527C421.122 49.5267 420.966 49.5072 420.797 49.4941C420.634 49.4811 420.471 49.4746 420.309 49.4746C419.905 49.4746 419.55 49.5332 419.244 49.6504C418.938 49.7611 418.681 49.9238 418.473 50.1387C418.271 50.347 418.115 50.6009 418.004 50.9004C417.893 51.1999 417.828 51.5352 417.809 51.9062L417.271 51.9453C417.271 51.2812 417.337 50.666 417.467 50.0996C417.597 49.5332 417.792 49.0352 418.053 48.6055C418.32 48.1758 418.652 47.8405 419.049 47.5996C419.452 47.3587 419.918 47.2383 420.445 47.2383C420.589 47.2383 420.742 47.2513 420.904 47.2773C421.074 47.3034 421.201 47.3327 421.285 47.3652ZM427.223 58.1953C426.441 58.1953 425.735 58.0684 425.104 57.8145C424.479 57.554 423.945 57.1927 423.502 56.7305C423.066 56.2682 422.73 55.7246 422.496 55.0996C422.262 54.4746 422.145 53.8008 422.145 53.0781V52.6875C422.145 51.8607 422.265 51.112 422.506 50.4414C422.747 49.7708 423.082 49.1979 423.512 48.7227C423.941 48.2409 424.449 47.873 425.035 47.6191C425.621 47.3652 426.256 47.2383 426.939 47.2383C427.695 47.2383 428.355 47.3652 428.922 47.6191C429.488 47.873 429.957 48.2311 430.328 48.6934C430.706 49.1491 430.986 49.6927 431.168 50.3242C431.357 50.9557 431.451 51.6523 431.451 52.4141V53.4199H423.287V51.7305H429.127V51.5449C429.114 51.1217 429.029 50.7246 428.873 50.3535C428.723 49.9824 428.492 49.6829 428.18 49.4551C427.867 49.2272 427.451 49.1133 426.93 49.1133C426.539 49.1133 426.191 49.1979 425.885 49.3672C425.585 49.5299 425.335 49.7676 425.133 50.0801C424.931 50.3926 424.775 50.7702 424.664 51.2129C424.56 51.6491 424.508 52.1406 424.508 52.6875V53.0781C424.508 53.5404 424.57 53.9701 424.693 54.3672C424.824 54.7578 425.012 55.0996 425.26 55.3926C425.507 55.6855 425.807 55.9167 426.158 56.0859C426.51 56.2487 426.91 56.3301 427.359 56.3301C427.926 56.3301 428.43 56.2161 428.873 55.9883C429.316 55.7604 429.7 55.4382 430.025 55.0215L431.266 56.2227C431.038 56.5547 430.742 56.8737 430.377 57.1797C430.012 57.4792 429.566 57.7233 429.039 57.9121C428.518 58.1009 427.913 58.1953 427.223 58.1953ZM439.244 55.8809V50.8418C439.244 50.4642 439.176 50.1387 439.039 49.8652C438.902 49.5918 438.694 49.3802 438.414 49.2305C438.141 49.0807 437.796 49.0059 437.379 49.0059C436.995 49.0059 436.663 49.071 436.383 49.2012C436.103 49.3314 435.885 49.5072 435.729 49.7285C435.572 49.9499 435.494 50.2005 435.494 50.4805H433.15C433.15 50.0638 433.251 49.6602 433.453 49.2695C433.655 48.8789 433.948 48.5306 434.332 48.2246C434.716 47.9186 435.175 47.6777 435.709 47.502C436.243 47.3262 436.842 47.2383 437.506 47.2383C438.3 47.2383 439.003 47.3717 439.615 47.6387C440.234 47.9056 440.719 48.3092 441.07 48.8496C441.428 49.3835 441.607 50.054 441.607 50.8613V55.5586C441.607 56.0404 441.64 56.4733 441.705 56.8574C441.777 57.235 441.878 57.5638 442.008 57.8438V58H439.596C439.485 57.7461 439.397 57.4238 439.332 57.0332C439.273 56.6361 439.244 56.252 439.244 55.8809ZM439.586 51.5742L439.605 53.0293H437.916C437.48 53.0293 437.096 53.0716 436.764 53.1562C436.432 53.2344 436.155 53.3516 435.934 53.5078C435.712 53.6641 435.546 53.8529 435.436 54.0742C435.325 54.2956 435.27 54.5462 435.27 54.8262C435.27 55.1061 435.335 55.3633 435.465 55.5977C435.595 55.8255 435.784 56.0046 436.031 56.1348C436.285 56.265 436.591 56.3301 436.949 56.3301C437.431 56.3301 437.851 56.2324 438.209 56.0371C438.574 55.8353 438.86 55.5911 439.068 55.3047C439.277 55.0117 439.387 54.735 439.4 54.4746L440.162 55.5195C440.084 55.7865 439.951 56.0729 439.762 56.3789C439.573 56.6849 439.326 56.9779 439.02 57.2578C438.72 57.5312 438.359 57.7559 437.936 57.9316C437.519 58.1074 437.037 58.1953 436.49 58.1953C435.8 58.1953 435.185 58.0586 434.645 57.7852C434.104 57.5052 433.681 57.1309 433.375 56.6621C433.069 56.1868 432.916 55.6497 432.916 55.0508C432.916 54.4909 433.02 53.9961 433.229 53.5664C433.443 53.1302 433.756 52.7656 434.166 52.4727C434.583 52.1797 435.09 51.9583 435.689 51.8086C436.288 51.6523 436.972 51.5742 437.74 51.5742H439.586ZM448.912 47.4336V49.1523H442.955V47.4336H448.912ZM444.674 44.8457H447.027V55.0801C447.027 55.4056 447.073 55.6562 447.164 55.832C447.262 56.0013 447.395 56.1152 447.564 56.1738C447.734 56.2324 447.932 56.2617 448.16 56.2617C448.323 56.2617 448.479 56.252 448.629 56.2324C448.779 56.2129 448.899 56.1934 448.99 56.1738L449 57.9707C448.805 58.0293 448.577 58.0814 448.316 58.127C448.062 58.1725 447.77 58.1953 447.438 58.1953C446.897 58.1953 446.419 58.1009 446.002 57.9121C445.585 57.7168 445.26 57.401 445.025 56.9648C444.791 56.5286 444.674 55.9492 444.674 55.2266V44.8457ZM455.387 58.1953C454.605 58.1953 453.899 58.0684 453.268 57.8145C452.643 57.554 452.109 57.1927 451.666 56.7305C451.23 56.2682 450.895 55.7246 450.66 55.0996C450.426 54.4746 450.309 53.8008 450.309 53.0781V52.6875C450.309 51.8607 450.429 51.112 450.67 50.4414C450.911 49.7708 451.246 49.1979 451.676 48.7227C452.105 48.2409 452.613 47.873 453.199 47.6191C453.785 47.3652 454.42 47.2383 455.104 47.2383C455.859 47.2383 456.52 47.3652 457.086 47.6191C457.652 47.873 458.121 48.2311 458.492 48.6934C458.87 49.1491 459.15 49.6927 459.332 50.3242C459.521 50.9557 459.615 51.6523 459.615 52.4141V53.4199H451.451V51.7305H457.291V51.5449C457.278 51.1217 457.193 50.7246 457.037 50.3535C456.887 49.9824 456.656 49.6829 456.344 49.4551C456.031 49.2272 455.615 49.1133 455.094 49.1133C454.703 49.1133 454.355 49.1979 454.049 49.3672C453.749 49.5299 453.499 49.7676 453.297 50.0801C453.095 50.3926 452.939 50.7702 452.828 51.2129C452.724 51.6491 452.672 52.1406 452.672 52.6875V53.0781C452.672 53.5404 452.734 53.9701 452.857 54.3672C452.988 54.7578 453.176 55.0996 453.424 55.3926C453.671 55.6855 453.971 55.9167 454.322 56.0859C454.674 56.2487 455.074 56.3301 455.523 56.3301C456.09 56.3301 456.594 56.2161 457.037 55.9883C457.48 55.7604 457.864 55.4382 458.189 55.0215L459.43 56.2227C459.202 56.5547 458.906 56.8737 458.541 57.1797C458.176 57.4792 457.73 57.7233 457.203 57.9121C456.682 58.1009 456.077 58.1953 455.387 58.1953ZM477.945 43.7812V58H475.494L469.117 47.8145V58H466.666V43.7812H469.117L475.514 53.9863V43.7812H477.945ZM485.289 58.1953C484.508 58.1953 483.801 58.0684 483.17 57.8145C482.545 57.554 482.011 57.1927 481.568 56.7305C481.132 56.2682 480.797 55.7246 480.562 55.0996C480.328 54.4746 480.211 53.8008 480.211 53.0781V52.6875C480.211 51.8607 480.331 51.112 480.572 50.4414C480.813 49.7708 481.148 49.1979 481.578 48.7227C482.008 48.2409 482.516 47.873 483.102 47.6191C483.688 47.3652 484.322 47.2383 485.006 47.2383C485.761 47.2383 486.422 47.3652 486.988 47.6191C487.555 47.873 488.023 48.2311 488.395 48.6934C488.772 49.1491 489.052 49.6927 489.234 50.3242C489.423 50.9557 489.518 51.6523 489.518 52.4141V53.4199H481.354V51.7305H487.193V51.5449C487.18 51.1217 487.096 50.7246 486.939 50.3535C486.79 49.9824 486.559 49.6829 486.246 49.4551C485.934 49.2272 485.517 49.1133 484.996 49.1133C484.605 49.1133 484.257 49.1979 483.951 49.3672C483.652 49.5299 483.401 49.7676 483.199 50.0801C482.997 50.3926 482.841 50.7702 482.73 51.2129C482.626 51.6491 482.574 52.1406 482.574 52.6875V53.0781C482.574 53.5404 482.636 53.9701 482.76 54.3672C482.89 54.7578 483.079 55.0996 483.326 55.3926C483.574 55.6855 483.873 55.9167 484.225 56.0859C484.576 56.2487 484.977 56.3301 485.426 56.3301C485.992 56.3301 486.497 56.2161 486.939 55.9883C487.382 55.7604 487.766 55.4382 488.092 55.0215L489.332 56.2227C489.104 56.5547 488.808 56.8737 488.443 57.1797C488.079 57.4792 487.633 57.7233 487.105 57.9121C486.585 58.1009 485.979 58.1953 485.289 58.1953ZM494.225 55.6562L496.666 47.4336H498.17L497.76 49.8945L495.299 58H493.951L494.225 55.6562ZM492.789 47.4336L494.693 55.6953L494.85 58H493.346L490.484 47.4336H492.789ZM500.455 55.5977L502.301 47.4336H504.596L501.744 58H500.24L500.455 55.5977ZM498.424 47.4336L500.836 55.5586L501.139 58H499.791L497.301 49.8848L496.891 47.4336H498.424ZM519.811 53.3711H522.252C522.174 54.3021 521.913 55.1322 521.471 55.8613C521.028 56.584 520.406 57.1536 519.605 57.5703C518.805 57.987 517.831 58.1953 516.686 58.1953C515.807 58.1953 515.016 58.0391 514.312 57.7266C513.609 57.4076 513.007 56.9583 512.506 56.3789C512.005 55.793 511.62 55.0866 511.354 54.2598C511.093 53.4329 510.963 52.5085 510.963 51.4863V50.3047C510.963 49.2826 511.096 48.3581 511.363 47.5312C511.637 46.7044 512.027 45.998 512.535 45.4121C513.043 44.8197 513.652 44.3672 514.361 44.0547C515.077 43.7422 515.882 43.5859 516.773 43.5859C517.906 43.5859 518.863 43.7943 519.645 44.2109C520.426 44.6276 521.031 45.2038 521.461 45.9395C521.897 46.6751 522.164 47.5182 522.262 48.4688H519.82C519.755 47.8568 519.612 47.3327 519.391 46.8965C519.176 46.4603 518.857 46.1283 518.434 45.9004C518.01 45.666 517.457 45.5488 516.773 45.5488C516.214 45.5488 515.725 45.653 515.309 45.8613C514.892 46.0697 514.544 46.3757 514.264 46.7793C513.984 47.1829 513.772 47.681 513.629 48.2734C513.492 48.8594 513.424 49.5299 513.424 50.2852V51.4863C513.424 52.2025 513.486 52.8535 513.609 53.4395C513.74 54.0189 513.935 54.5169 514.195 54.9336C514.462 55.3503 514.801 55.6725 515.211 55.9004C515.621 56.1283 516.113 56.2422 516.686 56.2422C517.382 56.2422 517.945 56.1315 518.375 55.9102C518.811 55.6888 519.14 55.3665 519.361 54.9434C519.589 54.5137 519.739 53.9896 519.811 53.3711ZM526.568 43V58H524.225V43H526.568ZM526.158 52.3262L525.396 52.3164C525.403 51.5872 525.504 50.9134 525.699 50.2949C525.901 49.6764 526.181 49.1393 526.539 48.6836C526.904 48.2214 527.34 47.8665 527.848 47.6191C528.355 47.3652 528.919 47.2383 529.537 47.2383C530.058 47.2383 530.527 47.3099 530.943 47.4531C531.367 47.5964 531.731 47.8275 532.037 48.1465C532.343 48.459 532.574 48.8691 532.73 49.377C532.893 49.8783 532.975 50.4902 532.975 51.2129V58H530.611V51.1934C530.611 50.6855 530.536 50.2819 530.387 49.9824C530.243 49.6829 530.032 49.4681 529.752 49.3379C529.472 49.2012 529.13 49.1328 528.727 49.1328C528.303 49.1328 527.929 49.2174 527.604 49.3867C527.285 49.556 527.018 49.7871 526.803 50.0801C526.588 50.373 526.425 50.7116 526.314 51.0957C526.21 51.4798 526.158 51.89 526.158 52.3262ZM541.314 55.8809V50.8418C541.314 50.4642 541.246 50.1387 541.109 49.8652C540.973 49.5918 540.764 49.3802 540.484 49.2305C540.211 49.0807 539.866 49.0059 539.449 49.0059C539.065 49.0059 538.733 49.071 538.453 49.2012C538.173 49.3314 537.955 49.5072 537.799 49.7285C537.643 49.9499 537.564 50.2005 537.564 50.4805H535.221C535.221 50.0638 535.322 49.6602 535.523 49.2695C535.725 48.8789 536.018 48.5306 536.402 48.2246C536.786 47.9186 537.245 47.6777 537.779 47.502C538.313 47.3262 538.912 47.2383 539.576 47.2383C540.37 47.2383 541.074 47.3717 541.686 47.6387C542.304 47.9056 542.789 48.3092 543.141 48.8496C543.499 49.3835 543.678 50.054 543.678 50.8613V55.5586C543.678 56.0404 543.71 56.4733 543.775 56.8574C543.847 57.235 543.948 57.5638 544.078 57.8438V58H541.666C541.555 57.7461 541.467 57.4238 541.402 57.0332C541.344 56.6361 541.314 56.252 541.314 55.8809ZM541.656 51.5742L541.676 53.0293H539.986C539.55 53.0293 539.166 53.0716 538.834 53.1562C538.502 53.2344 538.225 53.3516 538.004 53.5078C537.783 53.6641 537.617 53.8529 537.506 54.0742C537.395 54.2956 537.34 54.5462 537.34 54.8262C537.34 55.1061 537.405 55.3633 537.535 55.5977C537.665 55.8255 537.854 56.0046 538.102 56.1348C538.355 56.265 538.661 56.3301 539.02 56.3301C539.501 56.3301 539.921 56.2324 540.279 56.0371C540.644 55.8353 540.93 55.5911 541.139 55.3047C541.347 55.0117 541.458 54.735 541.471 54.4746L542.232 55.5195C542.154 55.7865 542.021 56.0729 541.832 56.3789C541.643 56.6849 541.396 56.9779 541.09 57.2578C540.79 57.5312 540.429 57.7559 540.006 57.9316C539.589 58.1074 539.107 58.1953 538.561 58.1953C537.87 58.1953 537.255 58.0586 536.715 57.7852C536.174 57.5052 535.751 57.1309 535.445 56.6621C535.139 56.1868 534.986 55.6497 534.986 55.0508C534.986 54.4909 535.09 53.9961 535.299 53.5664C535.514 53.1302 535.826 52.7656 536.236 52.4727C536.653 52.1797 537.161 51.9583 537.76 51.8086C538.359 51.6523 539.042 51.5742 539.811 51.5742H541.656ZM550.982 47.4336V49.1523H545.025V47.4336H550.982ZM546.744 44.8457H549.098V55.0801C549.098 55.4056 549.143 55.6562 549.234 55.832C549.332 56.0013 549.465 56.1152 549.635 56.1738C549.804 56.2324 550.003 56.2617 550.23 56.2617C550.393 56.2617 550.549 56.252 550.699 56.2324C550.849 56.2129 550.969 56.1934 551.061 56.1738L551.07 57.9707C550.875 58.0293 550.647 58.0814 550.387 58.127C550.133 58.1725 549.84 58.1953 549.508 58.1953C548.967 58.1953 548.489 58.1009 548.072 57.9121C547.656 57.7168 547.33 57.401 547.096 56.9648C546.861 56.5286 546.744 55.9492 546.744 55.2266V44.8457Z" fill="white"/>
<path fill-rule="evenodd" clip-rule="evenodd" d="M385 50H379V44C379 43.447 378.552 43 378 43C377.448 43 377 43.447 377 44V50H371C370.448 50 370 50.447 370 51C370 51.553 370.448 52 371 52H377V58C377 58.553 377.448 59 378 59C378.552 59 379 58.553 379 58V52H385C385.552 52 386 51.553 386 51C386 50.447 385.552 50 385 50Z" fill="#231F20"/>
<mask id="mask0_1_338" style="mask-type:luminance" maskUnits="userSpaceOnUse" x="370" y="43" width="16" height="16">
<path fill-rule="evenodd" clip-rule="evenodd" d="M385 50H379V44C379 43.447 378.552 43 378 43C377.448 43 377 43.447 377 44V50H371C370.448 50 370 50.447 370 51C370 51.553 370.448 52 371 52H377V58C377 58.553 377.448 59 378 59C378.552 59 379 58.553 379 58V52H385C385.552 52 386 51.553 386 51C386 50.447 385.552 50 385 50Z" fill="white"/>
</mask>
<g mask="url(#mask0_1_338)">
<rect x="366" y="39" width="24" height="24" fill="white"/>
</g>
<defs>
<filter id="filter0_ddd_1_338" x="320" y="0" width="296" height="112" filterUnits="userSpaceOnUse" color-interpolation-filters="sRGB">
<feFlood flood-opacity="0" result="BackgroundImageFix"/>
<feColorMatrix in="SourceAlpha" type="matrix" values="0 0 0 0 0 0 0 0 0 0 0 0 0 0 0 0 0 0 127 0" result="hardAlpha"/>
<feOffset dx="10" dy="6"/>
<feGaussianBlur stdDeviation="12.5"/>
<feColorMatrix type="matrix" values="0 0 0 0 0.164706 0 0 0 0 0.545098 0 0 0 0 0.94902 0 0 0 0.15 0"/>
<feBlend mode="normal" in2="BackgroundImageFix" result="effect1_dropShadow_1_338"/>
<feColorMatrix in="SourceAlpha" type="matrix" values="0 0 0 0 0 0 0 0 0 0 0 0 0 0 0 0 0 0 127 0" result="hardAlpha"/>
<feOffset dx="4" dy="4"/>
<feGaussianBlur stdDeviation="12.5"/>
<feColorMatrix type="matrix" values="0 0 0 0 0.164706 0 0 0 0 0.545098 0 0 0 0 0.94902 0 0 0 0.05 0"/>
<feBlend mode="normal" in2="effect1_dropShadow_1_338" result="effect2_dropShadow_1_338"/>
<feColorMatrix in="SourceAlpha" type="matrix" values="0 0 0 0 0 0 0 0 0 0 0 0 0 0 0 0 0 0 127 0" result="hardAlpha"/>
<feOffset dx="6" dy="6"/>
<feGaussianBlur stdDeviation="12.5"/>
<feColorMatrix type="matrix" values="0 0 0 0 0.164706 0 0 0 0 0.545098 0 0 0 0 0.94902 0 0 0 0.15 0"/>
<feBlend mode="normal" in2="effect2_dropShadow_1_338" result="effect3_dropShadow_1_338"/>
<feBlend mode="normal" in="SourceGraphic" in2="effect3_dropShadow_1_338" result="shape"/>
</filter>
<linearGradient id="paint0_linear_1_338" x1="341" y1="21" x2="583.722" y2="66.4731" gradientUnits="userSpaceOnUse">
<stop stop-color="#7CB8F7"/>
<stop offset="1" stop-color="#2A8BF2"/>
</linearGradient>
</defs>
</svg>
