<svg width="128" height="24" viewBox="0 0 128 24" fill="none" xmlns="http://www.w3.org/2000/svg">
<path d="M53.9062 14.2266H56.2422C56.1953 14.9922 55.9844 15.6719 55.6094 16.2656C55.2396 16.8594 54.7214 17.3229 54.0547 17.6562C53.3932 17.9896 52.5964 18.1562 51.6641 18.1562C50.9349 18.1562 50.2812 18.0312 49.7031 17.7812C49.125 17.526 48.6302 17.1615 48.2188 16.6875C47.8125 16.2135 47.5026 15.6406 47.2891 14.9688C47.0755 14.2969 46.9688 13.5443 46.9688 12.7109V11.9219C46.9688 11.0885 47.0781 10.3359 47.2969 9.66406C47.5208 8.98698 47.8385 8.41146 48.25 7.9375C48.6667 7.46354 49.1641 7.09896 49.7422 6.84375C50.3203 6.58854 50.9661 6.46094 51.6797 6.46094C52.6276 6.46094 53.4271 6.63281 54.0781 6.97656C54.7344 7.32031 55.2422 7.79427 55.6016 8.39844C55.9661 9.0026 56.1849 9.6901 56.2578 10.4609H53.9141C53.888 10.0026 53.7969 9.61458 53.6406 9.29688C53.4844 8.97396 53.2474 8.73177 52.9297 8.57031C52.6172 8.40365 52.2005 8.32031 51.6797 8.32031C51.2891 8.32031 50.9479 8.39323 50.6562 8.53906C50.3646 8.6849 50.1198 8.90625 49.9219 9.20312C49.724 9.5 49.5755 9.875 49.4766 10.3281C49.3828 10.776 49.3359 11.3021 49.3359 11.9062V12.7109C49.3359 13.2995 49.3802 13.8177 49.4688 14.2656C49.5573 14.7083 49.6927 15.0833 49.875 15.3906C50.0625 15.6927 50.3021 15.9219 50.5938 16.0781C50.8906 16.2292 51.2474 16.3047 51.6641 16.3047C52.1536 16.3047 52.5573 16.2266 52.875 16.0703C53.1927 15.9141 53.4349 15.6823 53.6016 15.375C53.7734 15.0677 53.875 14.6849 53.9062 14.2266ZM62.4062 8.57031L59.3125 18H56.8203L61.0469 6.625H62.6328L62.4062 8.57031ZM64.9766 18L61.875 8.57031L61.625 6.625H63.2266L67.4766 18H64.9766ZM64.8359 13.7656V15.6016H58.8281V13.7656H64.8359ZM75.8438 16.1719V18H70.1172V16.1719H75.8438ZM70.875 6.625V18H68.5312V6.625H70.875ZM84.8203 16.1719V18H78.7656V16.1719H84.8203ZM79.5312 6.625V18H77.1875V6.625H79.5312ZM84.0312 11.2578V13.0391H78.7656V11.2578H84.0312ZM84.8125 6.625V8.46094H78.7656V6.625H84.8125ZM95.4453 6.625V18H93.1016L88.5312 10.375V18H86.1875V6.625H88.5312L93.1094 14.2578V6.625H95.4453ZM100.977 18H98.5L98.5156 16.1719H100.977C101.591 16.1719 102.109 16.0339 102.531 15.7578C102.953 15.4766 103.271 15.0677 103.484 14.5312C103.703 13.9948 103.812 13.3464 103.812 12.5859V12.0312C103.812 11.4479 103.75 10.9349 103.625 10.4922C103.505 10.0495 103.326 9.67708 103.086 9.375C102.846 9.07292 102.552 8.84635 102.203 8.69531C101.854 8.53906 101.453 8.46094 101 8.46094H98.4531V6.625H101C101.76 6.625 102.456 6.75521 103.086 7.01562C103.721 7.27083 104.271 7.63802 104.734 8.11719C105.198 8.59635 105.555 9.16927 105.805 9.83594C106.06 10.4974 106.188 11.2344 106.188 12.0469V12.5859C106.188 13.3932 106.06 14.1302 105.805 14.7969C105.555 15.4635 105.198 16.0365 104.734 16.5156C104.276 16.9896 103.727 17.3568 103.086 17.6172C102.451 17.8724 101.747 18 100.977 18ZM99.8281 6.625V18H97.4844V6.625H99.8281ZM112.344 8.57031L109.25 18H106.758L110.984 6.625H112.57L112.344 8.57031ZM114.914 18L111.812 8.57031L111.562 6.625H113.164L117.414 18H114.914ZM114.773 13.7656V15.6016H108.766V13.7656H114.773ZM118.469 6.625H122.711C123.581 6.625 124.328 6.75521 124.953 7.01562C125.583 7.27604 126.068 7.66146 126.406 8.17188C126.745 8.68229 126.914 9.3099 126.914 10.0547C126.914 10.6641 126.81 11.1875 126.602 11.625C126.398 12.0573 126.109 12.4193 125.734 12.7109C125.365 12.9974 124.93 13.2266 124.43 13.3984L123.688 13.7891H120L119.984 11.9609H122.727C123.138 11.9609 123.479 11.888 123.75 11.7422C124.021 11.5964 124.224 11.3932 124.359 11.1328C124.5 10.8724 124.57 10.5703 124.57 10.2266C124.57 9.86198 124.503 9.54688 124.367 9.28125C124.232 9.01562 124.026 8.8125 123.75 8.67188C123.474 8.53125 123.128 8.46094 122.711 8.46094H120.812V18H118.469V6.625ZM124.828 18L122.234 12.9297L124.711 12.9141L127.336 17.8906V18H124.828Z" fill="#707C97"/>
<path fill-rule="evenodd" clip-rule="evenodd" d="M7 16C7 15.45 7.45 15 8 15C8.55 15 9 15.45 9 16C9 16.55 8.55 17 8 17C7.45 17 7 16.55 7 16ZM12 15H16C16.55 15 17 15.45 17 16C17 16.55 16.55 17 16 17H12C11.45 17 11 16.55 11 16C11 15.45 11.45 15 12 15ZM18 20H6C5.449 20 5 19.551 5 19V13H19V19C19 19.551 18.551 20 18 20ZM6 6H7V7C7 7.55 7.45 8 8 8C8.55 8 9 7.55 9 7V6H15V7C15 7.55 15.45 8 16 8C16.55 8 17 7.55 17 7V6H18C18.551 6 19 6.449 19 7V11H5V7C5 6.449 5.449 6 6 6ZM18 4H17V3C17 2.45 16.55 2 16 2C15.45 2 15 2.45 15 3V4H9V3C9 2.45 8.55 2 8 2C7.45 2 7 2.45 7 3V4H6C4.346 4 3 5.346 3 7V19C3 20.654 4.346 22 6 22H18C19.654 22 21 20.654 21 19V7C21 5.346 19.654 4 18 4Z" fill="#231F20"/>
<mask id="mask0_1_115" style="mask-type:luminance" maskUnits="userSpaceOnUse" x="3" y="2" width="18" height="20">
<path fill-rule="evenodd" clip-rule="evenodd" d="M7 16C7 15.45 7.45 15 8 15C8.55 15 9 15.45 9 16C9 16.55 8.55 17 8 17C7.45 17 7 16.55 7 16ZM12 15H16C16.55 15 17 15.45 17 16C17 16.55 16.55 17 16 17H12C11.45 17 11 16.55 11 16C11 15.45 11.45 15 12 15ZM18 20H6C5.449 20 5 19.551 5 19V13H19V19C19 19.551 18.551 20 18 20ZM6 6H7V7C7 7.55 7.45 8 8 8C8.55 8 9 7.55 9 7V6H15V7C15 7.55 15.45 8 16 8C16.55 8 17 7.55 17 7V6H18C18.551 6 19 6.449 19 7V11H5V7C5 6.449 5.449 6 6 6ZM18 4H17V3C17 2.45 16.55 2 16 2C15.45 2 15 2.45 15 3V4H9V3C9 2.45 8.55 2 8 2C7.45 2 7 2.45 7 3V4H6C4.346 4 3 5.346 3 7V19C3 20.654 4.346 22 6 22H18C19.654 22 21 20.654 21 19V7C21 5.346 19.654 4 18 4Z" fill="white"/>
</mask>
<g mask="url(#mask0_1_115)">
<rect width="24" height="24" fill="#707C97"/>
</g>
</svg>
