<svg width="124" height="90" viewBox="0 0 124 90" fill="none" xmlns="http://www.w3.org/2000/svg">
<mask id="mask0_1_65" style="mask-type:luminance" maskUnits="userSpaceOnUse" x="40" y="35" width="21" height="20">
<path fill-rule="evenodd" clip-rule="evenodd" d="M53.9996 45.9992C53.4476 45.9992 52.9996 45.5512 52.9996 44.9992C52.9996 44.4472 53.4476 43.9992 53.9996 43.9992C54.5516 43.9992 54.9996 44.4472 54.9996 44.9992C54.9996 45.5512 54.5516 45.9992 53.9996 45.9992ZM49.9996 45.9992C49.4476 45.9992 48.9996 45.5512 48.9996 44.9992C48.9996 44.4472 49.4476 43.9992 49.9996 43.9992C50.5516 43.9992 50.9996 44.4472 50.9996 44.9992C50.9996 45.5512 50.5516 45.9992 49.9996 45.9992ZM45.9996 45.9992C45.4476 45.9992 44.9996 45.5512 44.9996 44.9992C44.9996 44.4472 45.4476 43.9992 45.9996 43.9992C46.5516 43.9992 46.9996 44.4472 46.9996 44.9992C46.9996 45.5512 46.5516 45.9992 45.9996 45.9992ZM57.0706 37.9282C54.7866 35.6442 51.6256 34.6252 48.3966 35.1242C44.3196 35.7602 40.9396 39.0442 40.1766 43.1112C39.8096 45.0692 40.0206 47.0632 40.7876 48.8762C40.8856 49.1062 40.9156 49.3222 40.8766 49.5152L40.0196 53.8032C39.9536 54.1312 40.0566 54.4702 40.2926 54.7062C40.4816 54.8952 40.7366 54.9992 40.9996 54.9992C41.0646 54.9992 41.1306 54.9932 41.1956 54.9792L45.4786 54.1232C45.7246 54.0762 45.9636 54.1452 46.1226 54.2112C47.9366 54.9782 49.9306 55.1882 51.8876 54.8222C55.9546 54.0592 59.2386 50.6792 59.8746 46.6022C60.3776 43.3742 59.3556 40.2132 57.0706 37.9282Z" fill="white"/>
</mask>
<g mask="url(#mask0_1_65)">
<rect x="38" y="33" width="24" height="24" fill="url(#paint0_linear_1_65)"/>
</g>
<path d="M89.8047 46.2266H92.1406C92.0938 46.9922 91.8828 47.6719 91.5078 48.2656C91.138 48.8594 90.6198 49.3229 89.9531 49.6562C89.2917 49.9896 88.4948 50.1562 87.5625 50.1562C86.8333 50.1562 86.1797 50.0312 85.6016 49.7812C85.0234 49.526 84.5286 49.1615 84.1172 48.6875C83.7109 48.2135 83.401 47.6406 83.1875 46.9688C82.974 46.2969 82.8672 45.5443 82.8672 44.7109V43.9219C82.8672 43.0885 82.9766 42.3359 83.1953 41.6641C83.4193 40.987 83.737 40.4115 84.1484 39.9375C84.5651 39.4635 85.0625 39.099 85.6406 38.8438C86.2188 38.5885 86.8646 38.4609 87.5781 38.4609C88.526 38.4609 89.3255 38.6328 89.9766 38.9766C90.6328 39.3203 91.1406 39.7943 91.5 40.3984C91.8646 41.0026 92.0833 41.6901 92.1562 42.4609H89.8125C89.7865 42.0026 89.6953 41.6146 89.5391 41.2969C89.3828 40.974 89.1458 40.7318 88.8281 40.5703C88.5156 40.4036 88.099 40.3203 87.5781 40.3203C87.1875 40.3203 86.8464 40.3932 86.5547 40.5391C86.263 40.6849 86.0182 40.9062 85.8203 41.2031C85.6224 41.5 85.474 41.875 85.375 42.3281C85.2812 42.776 85.2344 43.3021 85.2344 43.9062V44.7109C85.2344 45.2995 85.2786 45.8177 85.3672 46.2656C85.4557 46.7083 85.5911 47.0833 85.7734 47.3906C85.9609 47.6927 86.2005 47.9219 86.4922 48.0781C86.7891 48.2292 87.1458 48.3047 87.5625 48.3047C88.0521 48.3047 88.4557 48.2266 88.7734 48.0703C89.0911 47.9141 89.3333 47.6823 89.5 47.375C89.6719 47.0677 89.7734 46.6849 89.8047 46.2266ZM101.266 43.2578V45.0859H95.3281V43.2578H101.266ZM96.0234 38.625V50H93.6797V38.625H96.0234ZM102.938 38.625V50H100.602V38.625H102.938ZM109.742 40.5703L106.648 50H104.156L108.383 38.625H109.969L109.742 40.5703ZM112.312 50L109.211 40.5703L108.961 38.625H110.562L114.812 50H112.312ZM112.172 45.7656V47.6016H106.164V45.7656H112.172ZM119.984 38.625V50H117.648V38.625H119.984ZM123.484 38.625V40.4609H114.203V38.625H123.484Z" fill="#2A8BF2"/>
<g filter="url(#filter0_ddd_1_65)">
<rect y="25" width="3" height="40" rx="1.5" fill="#2A8BF2"/>
</g>
<defs>
<filter id="filter0_ddd_1_65" x="-21" y="0" width="53" height="90" filterUnits="userSpaceOnUse" color-interpolation-filters="sRGB">
<feFlood flood-opacity="0" result="BackgroundImageFix"/>
<feColorMatrix in="SourceAlpha" type="matrix" values="0 0 0 0 0 0 0 0 0 0 0 0 0 0 0 0 0 0 127 0" result="hardAlpha"/>
<feOffset dx="4"/>
<feGaussianBlur stdDeviation="12.5"/>
<feColorMatrix type="matrix" values="0 0 0 0 0.164706 0 0 0 0 0.545098 0 0 0 0 0.94902 0 0 0 0.75 0"/>
<feBlend mode="normal" in2="BackgroundImageFix" result="effect1_dropShadow_1_65"/>
<feColorMatrix in="SourceAlpha" type="matrix" values="0 0 0 0 0 0 0 0 0 0 0 0 0 0 0 0 0 0 127 0" result="hardAlpha"/>
<feOffset/>
<feGaussianBlur stdDeviation="5"/>
<feColorMatrix type="matrix" values="0 0 0 0 0.164706 0 0 0 0 0.545098 0 0 0 0 0.94902 0 0 0 0.55 0"/>
<feBlend mode="normal" in2="effect1_dropShadow_1_65" result="effect2_dropShadow_1_65"/>
<feColorMatrix in="SourceAlpha" type="matrix" values="0 0 0 0 0 0 0 0 0 0 0 0 0 0 0 0 0 0 127 0" result="hardAlpha"/>
<feOffset dx="1"/>
<feGaussianBlur stdDeviation="5"/>
<feColorMatrix type="matrix" values="0 0 0 0 0.164706 0 0 0 0 0.545098 0 0 0 0 0.94902 0 0 0 0.45 0"/>
<feBlend mode="normal" in2="effect2_dropShadow_1_65" result="effect3_dropShadow_1_65"/>
<feBlend mode="normal" in="SourceGraphic" in2="effect3_dropShadow_1_65" result="shape"/>
</filter>
<linearGradient id="paint0_linear_1_65" x1="44" y1="37" x2="56" y2="52.5" gradientUnits="userSpaceOnUse">
<stop stop-color="#7CB8F7"/>
<stop offset="0.934101" stop-color="#2A8BF2"/>
</linearGradient>
</defs>
</svg>
