<svg width="119" height="24" viewBox="0 0 119 24" fill="none" xmlns="http://www.w3.org/2000/svg">
<path d="M53.9062 13.2266H56.2422C56.1953 13.9922 55.9844 14.6719 55.6094 15.2656C55.2396 15.8594 54.7214 16.3229 54.0547 16.6562C53.3932 16.9896 52.5964 17.1562 51.6641 17.1562C50.9349 17.1562 50.2812 17.0312 49.7031 16.7812C49.125 16.526 48.6302 16.1615 48.2188 15.6875C47.8125 15.2135 47.5026 14.6406 47.2891 13.9688C47.0755 13.2969 46.9688 12.5443 46.9688 11.7109V10.9219C46.9688 10.0885 47.0781 9.33594 47.2969 8.66406C47.5208 7.98698 47.8385 7.41146 48.25 6.9375C48.6667 6.46354 49.1641 6.09896 49.7422 5.84375C50.3203 5.58854 50.9661 5.46094 51.6797 5.46094C52.6276 5.46094 53.4271 5.63281 54.0781 5.97656C54.7344 6.32031 55.2422 6.79427 55.6016 7.39844C55.9661 8.0026 56.1849 8.6901 56.2578 9.46094H53.9141C53.888 9.0026 53.7969 8.61458 53.6406 8.29688C53.4844 7.97396 53.2474 7.73177 52.9297 7.57031C52.6172 7.40365 52.2005 7.32031 51.6797 7.32031C51.2891 7.32031 50.9479 7.39323 50.6562 7.53906C50.3646 7.6849 50.1198 7.90625 49.9219 8.20312C49.724 8.5 49.5755 8.875 49.4766 9.32812C49.3828 9.77604 49.3359 10.3021 49.3359 10.9062V11.7109C49.3359 12.2995 49.3802 12.8177 49.4688 13.2656C49.5573 13.7083 49.6927 14.0833 49.875 14.3906C50.0625 14.6927 50.3021 14.9219 50.5938 15.0781C50.8906 15.2292 51.2474 15.3047 51.6641 15.3047C52.1536 15.3047 52.5573 15.2266 52.875 15.0703C53.1927 14.9141 53.4349 14.6823 53.6016 14.375C53.7734 14.0677 53.875 13.6849 53.9062 13.2266ZM67.125 11.0469V11.5859C67.125 12.4505 67.0078 13.2266 66.7734 13.9141C66.5391 14.6016 66.2083 15.1875 65.7812 15.6719C65.3542 16.151 64.8438 16.5182 64.25 16.7734C63.6615 17.0286 63.0078 17.1562 62.2891 17.1562C61.5755 17.1562 60.9219 17.0286 60.3281 16.7734C59.7396 16.5182 59.2292 16.151 58.7969 15.6719C58.3646 15.1875 58.0286 14.6016 57.7891 13.9141C57.5547 13.2266 57.4375 12.4505 57.4375 11.5859V11.0469C57.4375 10.1771 57.5547 9.40104 57.7891 8.71875C58.0234 8.03125 58.3542 7.44531 58.7812 6.96094C59.2135 6.47656 59.724 6.10677 60.3125 5.85156C60.9062 5.59635 61.5599 5.46875 62.2734 5.46875C62.9922 5.46875 63.6458 5.59635 64.2344 5.85156C64.8281 6.10677 65.3385 6.47656 65.7656 6.96094C66.1979 7.44531 66.5312 8.03125 66.7656 8.71875C67.0052 9.40104 67.125 10.1771 67.125 11.0469ZM64.7578 11.5859V11.0312C64.7578 10.4271 64.7031 9.89583 64.5938 9.4375C64.4844 8.97917 64.3229 8.59375 64.1094 8.28125C63.8958 7.96875 63.6354 7.73438 63.3281 7.57812C63.0208 7.41667 62.6693 7.33594 62.2734 7.33594C61.8776 7.33594 61.526 7.41667 61.2188 7.57812C60.9167 7.73438 60.6589 7.96875 60.4453 8.28125C60.237 8.59375 60.0781 8.97917 59.9688 9.4375C59.8594 9.89583 59.8047 10.4271 59.8047 11.0312V11.5859C59.8047 12.1849 59.8594 12.7161 59.9688 13.1797C60.0781 13.638 60.2396 14.026 60.4531 14.3438C60.6667 14.6562 60.9271 14.8932 61.2344 15.0547C61.5417 15.2161 61.8932 15.2969 62.2891 15.2969C62.6849 15.2969 63.0365 15.2161 63.3438 15.0547C63.651 14.8932 63.9089 14.6562 64.1172 14.3438C64.3255 14.026 64.4844 13.638 64.5938 13.1797C64.7031 12.7161 64.7578 12.1849 64.7578 11.5859ZM78.0703 5.625V17H75.7266L71.1562 9.375V17H68.8125V5.625H71.1562L75.7344 13.2578V5.625H78.0703ZM84.9609 5.625V17H82.625V5.625H84.9609ZM88.4609 5.625V7.46094H79.1797V5.625H88.4609ZM93.5781 7.57031L90.4844 17H87.9922L92.2188 5.625H93.8047L93.5781 7.57031ZM96.1484 17L93.0469 7.57031L92.7969 5.625H94.3984L98.6484 17H96.1484ZM96.0078 12.7656V14.6016H90V12.7656H96.0078ZM106.156 13.2266H108.492C108.445 13.9922 108.234 14.6719 107.859 15.2656C107.49 15.8594 106.971 16.3229 106.305 16.6562C105.643 16.9896 104.846 17.1562 103.914 17.1562C103.185 17.1562 102.531 17.0312 101.953 16.7812C101.375 16.526 100.88 16.1615 100.469 15.6875C100.062 15.2135 99.7526 14.6406 99.5391 13.9688C99.3255 13.2969 99.2188 12.5443 99.2188 11.7109V10.9219C99.2188 10.0885 99.3281 9.33594 99.5469 8.66406C99.7708 7.98698 100.089 7.41146 100.5 6.9375C100.917 6.46354 101.414 6.09896 101.992 5.84375C102.57 5.58854 103.216 5.46094 103.93 5.46094C104.878 5.46094 105.677 5.63281 106.328 5.97656C106.984 6.32031 107.492 6.79427 107.852 7.39844C108.216 8.0026 108.435 8.6901 108.508 9.46094H106.164C106.138 9.0026 106.047 8.61458 105.891 8.29688C105.734 7.97396 105.497 7.73177 105.18 7.57031C104.867 7.40365 104.451 7.32031 103.93 7.32031C103.539 7.32031 103.198 7.39323 102.906 7.53906C102.615 7.6849 102.37 7.90625 102.172 8.20312C101.974 8.5 101.826 8.875 101.727 9.32812C101.633 9.77604 101.586 10.3021 101.586 10.9062V11.7109C101.586 12.2995 101.63 12.8177 101.719 13.2656C101.807 13.7083 101.943 14.0833 102.125 14.3906C102.312 14.6927 102.552 14.9219 102.844 15.0781C103.141 15.2292 103.497 15.3047 103.914 15.3047C104.404 15.3047 104.807 15.2266 105.125 15.0703C105.443 14.9141 105.685 14.6823 105.852 14.375C106.023 14.0677 106.125 13.6849 106.156 13.2266ZM114.883 5.625V17H112.547V5.625H114.883ZM118.383 5.625V7.46094H109.102V5.625H118.383Z" fill="#707C97"/>
<path fill-rule="evenodd" clip-rule="evenodd" d="M14 7C14 5.897 13.103 5 12 5C10.897 5 10 5.897 10 7C10 8.103 10.897 9 12 9C13.103 9 14 8.103 14 7ZM16 7C16 9.206 14.206 11 12 11C9.794 11 8 9.206 8 7C8 4.794 9.794 3 12 3C14.206 3 16 4.794 16 7ZM5 20C5 16.14 8.141 13 12 13C15.859 13 19 16.14 19 20C19 20.552 18.553 21 18 21C17.447 21 17 20.552 17 20C17 17.243 14.757 15 12 15C9.243 15 7 17.243 7 20C7 20.552 6.553 21 6 21C5.447 21 5 20.552 5 20Z" fill="#231F20"/>
<mask id="mask0_1_85" style="mask-type:luminance" maskUnits="userSpaceOnUse" x="5" y="3" width="14" height="18">
<path fill-rule="evenodd" clip-rule="evenodd" d="M14 7C14 5.897 13.103 5 12 5C10.897 5 10 5.897 10 7C10 8.103 10.897 9 12 9C13.103 9 14 8.103 14 7ZM16 7C16 9.206 14.206 11 12 11C9.794 11 8 9.206 8 7C8 4.794 9.794 3 12 3C14.206 3 16 4.794 16 7ZM5 20C5 16.14 8.141 13 12 13C15.859 13 19 16.14 19 20C19 20.552 18.553 21 18 21C17.447 21 17 20.552 17 20C17 17.243 14.757 15 12 15C9.243 15 7 17.243 7 20C7 20.552 6.553 21 6 21C5.447 21 5 20.552 5 20Z" fill="white"/>
</mask>
<g mask="url(#mask0_1_85)">
<rect width="24" height="24" fill="#707C97"/>
</g>
</svg>
