<svg width="90" height="24" viewBox="0 0 90 24" fill="none" xmlns="http://www.w3.org/2000/svg">
<path d="M52.9297 10.2578V12.0859H46.9922V10.2578H52.9297ZM47.6875 5.625V17H45.3438V5.625H47.6875ZM54.6016 5.625V17H52.2656V5.625H54.6016ZM65.9844 11.0469V11.5859C65.9844 12.4505 65.8672 13.2266 65.6328 13.9141C65.3984 14.6016 65.0677 15.1875 64.6406 15.6719C64.2135 16.151 63.7031 16.5182 63.1094 16.7734C62.5208 17.0286 61.8672 17.1562 61.1484 17.1562C60.4349 17.1562 59.7812 17.0286 59.1875 16.7734C58.599 16.5182 58.0885 16.151 57.6562 15.6719C57.224 15.1875 56.888 14.6016 56.6484 13.9141C56.4141 13.2266 56.2969 12.4505 56.2969 11.5859V11.0469C56.2969 10.1771 56.4141 9.40104 56.6484 8.71875C56.8828 8.03125 57.2135 7.44531 57.6406 6.96094C58.0729 6.47656 58.5833 6.10677 59.1719 5.85156C59.7656 5.59635 60.4193 5.46875 61.1328 5.46875C61.8516 5.46875 62.5052 5.59635 63.0938 5.85156C63.6875 6.10677 64.1979 6.47656 64.625 6.96094C65.0573 7.44531 65.3906 8.03125 65.625 8.71875C65.8646 9.40104 65.9844 10.1771 65.9844 11.0469ZM63.6172 11.5859V11.0312C63.6172 10.4271 63.5625 9.89583 63.4531 9.4375C63.3438 8.97917 63.1823 8.59375 62.9688 8.28125C62.7552 7.96875 62.4948 7.73438 62.1875 7.57812C61.8802 7.41667 61.5286 7.33594 61.1328 7.33594C60.737 7.33594 60.3854 7.41667 60.0781 7.57812C59.776 7.73438 59.5182 7.96875 59.3047 8.28125C59.0964 8.59375 58.9375 8.97917 58.8281 9.4375C58.7188 9.89583 58.6641 10.4271 58.6641 11.0312V11.5859C58.6641 12.1849 58.7188 12.7161 58.8281 13.1797C58.9375 13.638 59.099 14.026 59.3125 14.3438C59.526 14.6562 59.7865 14.8932 60.0938 15.0547C60.401 15.2161 60.7526 15.2969 61.1484 15.2969C61.5443 15.2969 61.8958 15.2161 62.2031 15.0547C62.5104 14.8932 62.7682 14.6562 62.9766 14.3438C63.1849 14.026 63.3438 13.638 63.4531 13.1797C63.5625 12.7161 63.6172 12.1849 63.6172 11.5859ZM68.7422 5.625H70.7266L73.6484 13.9766L76.5703 5.625H78.5547L74.4453 17H72.8516L68.7422 5.625ZM67.6719 5.625H69.6484L70.0078 13.7656V17H67.6719V5.625ZM77.6484 5.625H79.6328V17H77.2891V13.7656L77.6484 5.625ZM89.3203 15.1719V17H83.2656V15.1719H89.3203ZM84.0312 5.625V17H81.6875V5.625H84.0312ZM88.5312 10.2578V12.0391H83.2656V10.2578H88.5312ZM89.3125 5.625V7.46094H83.2656V5.625H89.3125Z" fill="#707C97"/>
<path fill-rule="evenodd" clip-rule="evenodd" d="M15 19V15H19L19.001 19H15ZM19 13H15C13.897 13 13 13.897 13 15V19C13 20.103 13.897 21 15 21H19C20.103 21 21 20.103 21 19V15C21 13.897 20.103 13 19 13ZM5 19V15H9L9.001 19H5ZM9 13H5C3.897 13 3 13.897 3 15V19C3 20.103 3.897 21 5 21H9C10.103 21 11 20.103 11 19V15C11 13.897 10.103 13 9 13ZM15 9V5H19L19.001 9H15ZM19 3H15C13.897 3 13 3.897 13 5V9C13 10.103 13.897 11 15 11H19C20.103 11 21 10.103 21 9V5C21 3.897 20.103 3 19 3ZM5 9V5H9L9.001 9H5ZM9 3H5C3.897 3 3 3.897 3 5V9C3 10.103 3.897 11 5 11H9C10.103 11 11 10.103 11 9V5C11 3.897 10.103 3 9 3Z" fill="#231F20"/>
<mask id="mask0_1_41" style="mask-type:luminance" maskUnits="userSpaceOnUse" x="3" y="3" width="18" height="18">
<path fill-rule="evenodd" clip-rule="evenodd" d="M15 19V15H19L19.001 19H15ZM19 13H15C13.897 13 13 13.897 13 15V19C13 20.103 13.897 21 15 21H19C20.103 21 21 20.103 21 19V15C21 13.897 20.103 13 19 13ZM5 19V15H9L9.001 19H5ZM9 13H5C3.897 13 3 13.897 3 15V19C3 20.103 3.897 21 5 21H9C10.103 21 11 20.103 11 19V15C11 13.897 10.103 13 9 13ZM15 9V5H19L19.001 9H15ZM19 3H15C13.897 3 13 3.897 13 5V9C13 10.103 13.897 11 15 11H19C20.103 11 21 10.103 21 9V5C21 3.897 20.103 3 19 3ZM5 9V5H9L9.001 9H5ZM9 3H5C3.897 3 3 3.897 3 5V9C3 10.103 3.897 11 5 11H9C10.103 11 11 10.103 11 9V5C11 3.897 10.103 3 9 3Z" fill="white"/>
</mask>
<g mask="url(#mask0_1_41)">
<rect width="24" height="24" fill="#707C97"/>
</g>
</svg>
