<svg width="111" height="24" viewBox="0 0 111 24" fill="none" xmlns="http://www.w3.org/2000/svg">
<path d="M53.6328 15.4453V17H47.9219V15.4453H53.6328ZM48.4688 5.625V17H46.5078V5.625H48.4688ZM63.7031 11V11.625C63.7031 12.4844 63.5911 13.2552 63.3672 13.9375C63.1432 14.6198 62.8229 15.2005 62.4062 15.6797C61.9948 16.1589 61.5 16.526 60.9219 16.7812C60.3438 17.0312 59.7031 17.1562 59 17.1562C58.3021 17.1562 57.6641 17.0312 57.0859 16.7812C56.513 16.526 56.0156 16.1589 55.5938 15.6797C55.1719 15.2005 54.8438 14.6198 54.6094 13.9375C54.3802 13.2552 54.2656 12.4844 54.2656 11.625V11C54.2656 10.1406 54.3802 9.3724 54.6094 8.69531C54.8385 8.01302 55.1615 7.43229 55.5781 6.95312C56 6.46875 56.4974 6.10156 57.0703 5.85156C57.6484 5.59635 58.2865 5.46875 58.9844 5.46875C59.6875 5.46875 60.3281 5.59635 60.9062 5.85156C61.4844 6.10156 61.9818 6.46875 62.3984 6.95312C62.8151 7.43229 63.1354 8.01302 63.3594 8.69531C63.5885 9.3724 63.7031 10.1406 63.7031 11ZM61.7422 11.625V10.9844C61.7422 10.349 61.6797 9.78906 61.5547 9.30469C61.4349 8.8151 61.2552 8.40625 61.0156 8.07812C60.7812 7.74479 60.4922 7.49479 60.1484 7.32812C59.8047 7.15625 59.4167 7.07031 58.9844 7.07031C58.5521 7.07031 58.1667 7.15625 57.8281 7.32812C57.4896 7.49479 57.2005 7.74479 56.9609 8.07812C56.7266 8.40625 56.5469 8.8151 56.4219 9.30469C56.2969 9.78906 56.2344 10.349 56.2344 10.9844V11.625C56.2344 12.2604 56.2969 12.8229 56.4219 13.3125C56.5469 13.8021 56.7292 14.2161 56.9688 14.5547C57.2135 14.888 57.5052 15.1406 57.8438 15.3125C58.1823 15.4792 58.5677 15.5625 59 15.5625C59.4375 15.5625 59.8255 15.4792 60.1641 15.3125C60.5026 15.1406 60.7891 14.888 61.0234 14.5547C61.2578 14.2161 61.4349 13.8021 61.5547 13.3125C61.6797 12.8229 61.7422 12.2604 61.7422 11.625ZM74.3984 11.1875V15.5312C74.237 15.7448 73.9844 15.9792 73.6406 16.2344C73.3021 16.4844 72.8516 16.7005 72.2891 16.8828C71.7266 17.0651 71.026 17.1562 70.1875 17.1562C69.474 17.1562 68.8203 17.0365 68.2266 16.7969C67.6328 16.5521 67.1198 16.1953 66.6875 15.7266C66.2604 15.2578 65.9297 14.6875 65.6953 14.0156C65.4609 13.3385 65.3438 12.5677 65.3438 11.7031V10.9141C65.3438 10.0547 65.4505 9.28906 65.6641 8.61719C65.8828 7.9401 66.1953 7.36719 66.6016 6.89844C67.0078 6.42969 67.4974 6.07552 68.0703 5.83594C68.6484 5.59115 69.3021 5.46875 70.0312 5.46875C70.9635 5.46875 71.7344 5.625 72.3438 5.9375C72.9583 6.24479 73.4323 6.67188 73.7656 7.21875C74.099 7.76562 74.3099 8.39062 74.3984 9.09375H72.4766C72.4141 8.69792 72.2917 8.34375 72.1094 8.03125C71.9323 7.71875 71.6771 7.47396 71.3438 7.29688C71.0156 7.11458 70.5885 7.02344 70.0625 7.02344C69.6094 7.02344 69.2109 7.10938 68.8672 7.28125C68.5234 7.45312 68.237 7.70573 68.0078 8.03906C67.7839 8.3724 67.6146 8.77865 67.5 9.25781C67.3854 9.73698 67.3281 10.2839 67.3281 10.8984V11.7031C67.3281 12.3281 67.3932 12.8828 67.5234 13.3672C67.6589 13.8516 67.8516 14.2604 68.1016 14.5938C68.3568 14.9271 68.6667 15.1797 69.0312 15.3516C69.3958 15.5182 69.8073 15.6016 70.2656 15.6016C70.7135 15.6016 71.0807 15.5651 71.3672 15.4922C71.6536 15.4141 71.8802 15.3229 72.0469 15.2188C72.2188 15.1094 72.3516 15.0052 72.4453 14.9062V12.6484H70.0781V11.1875H74.3984ZM89.625 11V11.625C89.625 12.4844 89.513 13.2552 89.2891 13.9375C89.0651 14.6198 88.7448 15.2005 88.3281 15.6797C87.9167 16.1589 87.4219 16.526 86.8438 16.7812C86.2656 17.0312 85.625 17.1562 84.9219 17.1562C84.224 17.1562 83.5859 17.0312 83.0078 16.7812C82.4349 16.526 81.9375 16.1589 81.5156 15.6797C81.0938 15.2005 80.7656 14.6198 80.5312 13.9375C80.3021 13.2552 80.1875 12.4844 80.1875 11.625V11C80.1875 10.1406 80.3021 9.3724 80.5312 8.69531C80.7604 8.01302 81.0833 7.43229 81.5 6.95312C81.9219 6.46875 82.4193 6.10156 82.9922 5.85156C83.5703 5.59635 84.2083 5.46875 84.9062 5.46875C85.6094 5.46875 86.25 5.59635 86.8281 5.85156C87.4062 6.10156 87.9036 6.46875 88.3203 6.95312C88.737 7.43229 89.0573 8.01302 89.2812 8.69531C89.5104 9.3724 89.625 10.1406 89.625 11ZM87.6641 11.625V10.9844C87.6641 10.349 87.6016 9.78906 87.4766 9.30469C87.3568 8.8151 87.1771 8.40625 86.9375 8.07812C86.7031 7.74479 86.4141 7.49479 86.0703 7.32812C85.7266 7.15625 85.3385 7.07031 84.9062 7.07031C84.474 7.07031 84.0885 7.15625 83.75 7.32812C83.4115 7.49479 83.1224 7.74479 82.8828 8.07812C82.6484 8.40625 82.4688 8.8151 82.3438 9.30469C82.2188 9.78906 82.1562 10.349 82.1562 10.9844V11.625C82.1562 12.2604 82.2188 12.8229 82.3438 13.3125C82.4688 13.8021 82.651 14.2161 82.8906 14.5547C83.1354 14.888 83.4271 15.1406 83.7656 15.3125C84.1042 15.4792 84.4896 15.5625 84.9219 15.5625C85.3594 15.5625 85.7474 15.4792 86.0859 15.3125C86.4245 15.1406 86.7109 14.888 86.9453 14.5547C87.1797 14.2161 87.3568 13.8021 87.4766 13.3125C87.6016 12.8229 87.6641 12.2604 87.6641 11.625ZM97.9688 5.625H99.9219V13.2266C99.9219 14.0911 99.7344 14.8151 99.3594 15.3984C98.9844 15.9818 98.474 16.4219 97.8281 16.7188C97.1875 17.0104 96.4714 17.1562 95.6797 17.1562C94.862 17.1562 94.1328 17.0104 93.4922 16.7188C92.8516 16.4219 92.3464 15.9818 91.9766 15.3984C91.612 14.8151 91.4297 14.0911 91.4297 13.2266V5.625H93.3828V13.2266C93.3828 13.7734 93.4766 14.224 93.6641 14.5781C93.8516 14.9271 94.1172 15.1849 94.4609 15.3516C94.8047 15.5182 95.2109 15.6016 95.6797 15.6016C96.1484 15.6016 96.5521 15.5182 96.8906 15.3516C97.2344 15.1849 97.5 14.9271 97.6875 14.5781C97.875 14.224 97.9688 13.7734 97.9688 13.2266V5.625ZM106.734 5.625V17H104.789V5.625H106.734ZM110.305 5.625V7.1875H101.25V5.625H110.305Z" fill="#707C97"/>
<path fill-rule="evenodd" clip-rule="evenodd" d="M13 12C13 12.553 12.552 13 12 13C11.448 13 11 12.553 11 12V2C11 1.447 11.448 1 12 1C12.552 1 13 1.447 13 2V12ZM15.2389 3.5413C15.4919 3.0503 16.0959 2.8593 16.5859 3.1113C19.9249 4.8383 21.9999 8.2433 21.9999 12.0003C21.9999 17.5133 17.5139 22.0003 11.9999 22.0003C6.48588 22.0003 1.99988 17.5133 1.99988 12.0003C1.99988 8.2433 4.07488 4.8383 7.41488 3.1113C7.90388 2.8583 8.50788 3.0493 8.76188 3.5413C9.01588 4.0313 8.82288 4.6343 8.33288 4.8883C5.65988 6.2693 3.99988 8.9943 3.99988 12.0003C3.99988 16.4113 7.58888 20.0003 11.9999 20.0003C16.4109 20.0003 19.9999 16.4113 19.9999 12.0003C19.9999 8.9943 18.3399 6.2693 15.6679 4.8883C15.1769 4.6343 14.9849 4.0313 15.2389 3.5413Z" fill="#231F20"/>
<mask id="mask0_1_151" style="mask-type:luminance" maskUnits="userSpaceOnUse" x="1" y="1" width="21" height="22">
<path fill-rule="evenodd" clip-rule="evenodd" d="M13 12C13 12.553 12.552 13 12 13C11.448 13 11 12.553 11 12V2C11 1.447 11.448 1 12 1C12.552 1 13 1.447 13 2V12ZM15.2389 3.5413C15.4919 3.0503 16.0959 2.8593 16.5859 3.1113C19.9249 4.8383 21.9999 8.2433 21.9999 12.0003C21.9999 17.5133 17.5139 22.0003 11.9999 22.0003C6.48588 22.0003 1.99988 17.5133 1.99988 12.0003C1.99988 8.2433 4.07488 4.8383 7.41488 3.1113C7.90388 2.8583 8.50788 3.0493 8.76188 3.5413C9.01588 4.0313 8.82288 4.6343 8.33288 4.8883C5.65988 6.2693 3.99988 8.9943 3.99988 12.0003C3.99988 16.4113 7.58888 20.0003 11.9999 20.0003C16.4109 20.0003 19.9999 16.4113 19.9999 12.0003C19.9999 8.9943 18.3399 6.2693 15.6679 4.8883C15.1769 4.6343 14.9849 4.0313 15.2389 3.5413Z" fill="white"/>
</mask>
<g mask="url(#mask0_1_151)">
<rect width="24" height="24" fill="#707C97"/>
</g>
</svg>
