<svg width="165" height="24" viewBox="0 0 165 24" fill="none" xmlns="http://www.w3.org/2000/svg">
<path d="M58.3125 6.625V18H55.9688L51.3984 10.375V18H49.0547V6.625H51.3984L55.9766 14.2578V6.625H58.3125ZM69.6953 12.0469V12.5859C69.6953 13.4505 69.5781 14.2266 69.3438 14.9141C69.1094 15.6016 68.7786 16.1875 68.3516 16.6719C67.9245 17.151 67.4141 17.5182 66.8203 17.7734C66.2318 18.0286 65.5781 18.1562 64.8594 18.1562C64.1458 18.1562 63.4922 18.0286 62.8984 17.7734C62.3099 17.5182 61.7995 17.151 61.3672 16.6719C60.9349 16.1875 60.599 15.6016 60.3594 14.9141C60.125 14.2266 60.0078 13.4505 60.0078 12.5859V12.0469C60.0078 11.1771 60.125 10.401 60.3594 9.71875C60.5938 9.03125 60.9245 8.44531 61.3516 7.96094C61.7839 7.47656 62.2943 7.10677 62.8828 6.85156C63.4766 6.59635 64.1302 6.46875 64.8438 6.46875C65.5625 6.46875 66.2161 6.59635 66.8047 6.85156C67.3984 7.10677 67.9089 7.47656 68.3359 7.96094C68.7682 8.44531 69.1016 9.03125 69.3359 9.71875C69.5755 10.401 69.6953 11.1771 69.6953 12.0469ZM67.3281 12.5859V12.0312C67.3281 11.4271 67.2734 10.8958 67.1641 10.4375C67.0547 9.97917 66.8932 9.59375 66.6797 9.28125C66.4661 8.96875 66.2057 8.73438 65.8984 8.57812C65.5911 8.41667 65.2396 8.33594 64.8438 8.33594C64.4479 8.33594 64.0964 8.41667 63.7891 8.57812C63.487 8.73438 63.2292 8.96875 63.0156 9.28125C62.8073 9.59375 62.6484 9.97917 62.5391 10.4375C62.4297 10.8958 62.375 11.4271 62.375 12.0312V12.5859C62.375 13.1849 62.4297 13.7161 62.5391 14.1797C62.6484 14.638 62.8099 15.026 63.0234 15.3438C63.237 15.6562 63.4974 15.8932 63.8047 16.0547C64.112 16.2161 64.4635 16.2969 64.8594 16.2969C65.2552 16.2969 65.6068 16.2161 65.9141 16.0547C66.2214 15.8932 66.4792 15.6562 66.6875 15.3438C66.8958 15.026 67.0547 14.638 67.1641 14.1797C67.2734 13.7161 67.3281 13.1849 67.3281 12.5859ZM75.9375 6.625V18H73.6016V6.625H75.9375ZM79.4375 6.625V8.46094H70.1562V6.625H79.4375ZM83.2656 6.625V18H80.9297V6.625H83.2656ZM87.8047 6.625V18H85.4609V6.625H87.8047ZM92.3359 11.4844V13.3125H87.1641V11.4844H92.3359ZM92.8828 6.625V8.46094H87.1641V6.625H92.8828ZM96.7344 6.625V18H94.3984V6.625H96.7344ZM105.523 14.2266H107.859C107.812 14.9922 107.602 15.6719 107.227 16.2656C106.857 16.8594 106.339 17.3229 105.672 17.6562C105.01 17.9896 104.214 18.1562 103.281 18.1562C102.552 18.1562 101.898 18.0312 101.32 17.7812C100.742 17.526 100.247 17.1615 99.8359 16.6875C99.4297 16.2135 99.1198 15.6406 98.9062 14.9688C98.6927 14.2969 98.5859 13.5443 98.5859 12.7109V11.9219C98.5859 11.0885 98.6953 10.3359 98.9141 9.66406C99.138 8.98698 99.4557 8.41146 99.8672 7.9375C100.284 7.46354 100.781 7.09896 101.359 6.84375C101.938 6.58854 102.583 6.46094 103.297 6.46094C104.245 6.46094 105.044 6.63281 105.695 6.97656C106.352 7.32031 106.859 7.79427 107.219 8.39844C107.583 9.0026 107.802 9.6901 107.875 10.4609H105.531C105.505 10.0026 105.414 9.61458 105.258 9.29688C105.102 8.97396 104.865 8.73177 104.547 8.57031C104.234 8.40365 103.818 8.32031 103.297 8.32031C102.906 8.32031 102.565 8.39323 102.273 8.53906C101.982 8.6849 101.737 8.90625 101.539 9.20312C101.341 9.5 101.193 9.875 101.094 10.3281C101 10.776 100.953 11.3021 100.953 11.9062V12.7109C100.953 13.2995 100.997 13.8177 101.086 14.2656C101.174 14.7083 101.31 15.0833 101.492 15.3906C101.68 15.6927 101.919 15.9219 102.211 16.0781C102.508 16.2292 102.865 16.3047 103.281 16.3047C103.771 16.3047 104.174 16.2266 104.492 16.0703C104.81 15.9141 105.052 15.6823 105.219 15.375C105.391 15.0677 105.492 14.6849 105.523 14.2266ZM114.023 8.57031L110.93 18H108.438L112.664 6.625H114.25L114.023 8.57031ZM116.594 18L113.492 8.57031L113.242 6.625H114.844L119.094 18H116.594ZM116.453 13.7656V15.6016H110.445V13.7656H116.453ZM124.266 6.625V18H121.93V6.625H124.266ZM127.766 6.625V8.46094H118.484V6.625H127.766ZM131.594 6.625V18H129.258V6.625H131.594ZM143.133 12.0469V12.5859C143.133 13.4505 143.016 14.2266 142.781 14.9141C142.547 15.6016 142.216 16.1875 141.789 16.6719C141.362 17.151 140.852 17.5182 140.258 17.7734C139.669 18.0286 139.016 18.1562 138.297 18.1562C137.583 18.1562 136.93 18.0286 136.336 17.7734C135.747 17.5182 135.237 17.151 134.805 16.6719C134.372 16.1875 134.036 15.6016 133.797 14.9141C133.562 14.2266 133.445 13.4505 133.445 12.5859V12.0469C133.445 11.1771 133.562 10.401 133.797 9.71875C134.031 9.03125 134.362 8.44531 134.789 7.96094C135.221 7.47656 135.732 7.10677 136.32 6.85156C136.914 6.59635 137.568 6.46875 138.281 6.46875C139 6.46875 139.654 6.59635 140.242 6.85156C140.836 7.10677 141.346 7.47656 141.773 7.96094C142.206 8.44531 142.539 9.03125 142.773 9.71875C143.013 10.401 143.133 11.1771 143.133 12.0469ZM140.766 12.5859V12.0312C140.766 11.4271 140.711 10.8958 140.602 10.4375C140.492 9.97917 140.331 9.59375 140.117 9.28125C139.904 8.96875 139.643 8.73438 139.336 8.57812C139.029 8.41667 138.677 8.33594 138.281 8.33594C137.885 8.33594 137.534 8.41667 137.227 8.57812C136.924 8.73438 136.667 8.96875 136.453 9.28125C136.245 9.59375 136.086 9.97917 135.977 10.4375C135.867 10.8958 135.812 11.4271 135.812 12.0312V12.5859C135.812 13.1849 135.867 13.7161 135.977 14.1797C136.086 14.638 136.247 15.026 136.461 15.3438C136.674 15.6562 136.935 15.8932 137.242 16.0547C137.549 16.2161 137.901 16.2969 138.297 16.2969C138.693 16.2969 139.044 16.2161 139.352 16.0547C139.659 15.8932 139.917 15.6562 140.125 15.3438C140.333 15.026 140.492 14.638 140.602 14.1797C140.711 13.7161 140.766 13.1849 140.766 12.5859ZM154.078 6.625V18H151.734L147.164 10.375V18H144.82V6.625H147.164L151.742 14.2578V6.625H154.078ZM162.039 15.0234C162.039 14.8203 162.008 14.638 161.945 14.4766C161.888 14.3099 161.779 14.1589 161.617 14.0234C161.456 13.8828 161.229 13.7448 160.938 13.6094C160.646 13.474 160.268 13.3333 159.805 13.1875C159.289 13.0208 158.799 12.8333 158.336 12.625C157.878 12.4167 157.471 12.1745 157.117 11.8984C156.768 11.6172 156.492 11.2917 156.289 10.9219C156.091 10.5521 155.992 10.1224 155.992 9.63281C155.992 9.15885 156.096 8.72917 156.305 8.34375C156.513 7.95312 156.805 7.61979 157.18 7.34375C157.555 7.0625 157.997 6.84635 158.508 6.69531C159.023 6.54427 159.589 6.46875 160.203 6.46875C161.042 6.46875 161.773 6.61979 162.398 6.92188C163.023 7.22396 163.508 7.63802 163.852 8.16406C164.201 8.6901 164.375 9.29167 164.375 9.96875H162.047C162.047 9.63542 161.977 9.34375 161.836 9.09375C161.701 8.83854 161.492 8.63802 161.211 8.49219C160.935 8.34635 160.586 8.27344 160.164 8.27344C159.758 8.27344 159.419 8.33594 159.148 8.46094C158.878 8.58073 158.674 8.74479 158.539 8.95312C158.404 9.15625 158.336 9.38542 158.336 9.64062C158.336 9.83333 158.383 10.0078 158.477 10.1641C158.576 10.3203 158.721 10.4661 158.914 10.6016C159.107 10.737 159.344 10.8646 159.625 10.9844C159.906 11.1042 160.232 11.2214 160.602 11.3359C161.221 11.5234 161.766 11.7344 162.234 11.9688C162.708 12.2031 163.104 12.4661 163.422 12.7578C163.74 13.0495 163.979 13.3802 164.141 13.75C164.302 14.1198 164.383 14.5391 164.383 15.0078C164.383 15.5026 164.286 15.9453 164.094 16.3359C163.901 16.7266 163.622 17.0573 163.258 17.3281C162.893 17.599 162.458 17.8047 161.953 17.9453C161.448 18.0859 160.883 18.1562 160.258 18.1562C159.695 18.1562 159.141 18.0833 158.594 17.9375C158.047 17.7865 157.549 17.5599 157.102 17.2578C156.659 16.9557 156.305 16.5703 156.039 16.1016C155.773 15.6328 155.641 15.0781 155.641 14.4375H157.992C157.992 14.7917 158.047 15.0911 158.156 15.3359C158.266 15.5807 158.419 15.7786 158.617 15.9297C158.82 16.0807 159.06 16.1901 159.336 16.2578C159.617 16.3255 159.924 16.3594 160.258 16.3594C160.664 16.3594 160.997 16.3021 161.258 16.1875C161.523 16.0729 161.719 15.9141 161.844 15.7109C161.974 15.5078 162.039 15.2786 162.039 15.0234Z" fill="#707C97"/>
<path fill-rule="evenodd" clip-rule="evenodd" d="M5.5146 16L6.6946 14.818C7.0726 14.44 7.2806 13.938 7.2806 13.404V8.72702C7.2806 7.37002 7.8706 6.07302 8.9006 5.17102C9.9386 4.26102 11.2606 3.86102 12.6376 4.04202C14.9646 4.35102 16.7196 6.45502 16.7196 8.93702V13.404C16.7196 13.938 16.9276 14.44 17.3046 14.817L18.4856 16H5.5146ZM13.9996 18.341C13.9996 19.24 13.0836 20 11.9996 20C10.9156 20 9.9996 19.24 9.9996 18.341V18H13.9996V18.341ZM20.5206 15.208L18.7196 13.404V8.93702C18.7196 5.45602 16.2176 2.49902 12.8996 2.06002C10.9776 1.80402 9.0376 2.39102 7.5826 3.66702C6.1186 4.94902 5.2806 6.79302 5.2806 8.72702L5.2796 13.404L3.4786 15.208C3.0096 15.678 2.8706 16.377 3.1246 16.99C3.3796 17.604 3.9726 18 4.6366 18H7.9996V18.341C7.9996 20.359 9.7936 22 11.9996 22C14.2056 22 15.9996 20.359 15.9996 18.341V18H19.3626C20.0266 18 20.6186 17.604 20.8726 16.991C21.1276 16.377 20.9896 15.677 20.5206 15.208Z" fill="#231F20"/>
<mask id="mask0_1_101" style="mask-type:luminance" maskUnits="userSpaceOnUse" x="2" y="2" width="19" height="20">
<path fill-rule="evenodd" clip-rule="evenodd" d="M5.5146 16L6.6946 14.818C7.0726 14.44 7.2806 13.938 7.2806 13.404V8.72702C7.2806 7.37002 7.8706 6.07302 8.9006 5.17102C9.9386 4.26102 11.2606 3.86102 12.6376 4.04202C14.9646 4.35102 16.7196 6.45502 16.7196 8.93702V13.404C16.7196 13.938 16.9276 14.44 17.3046 14.817L18.4856 16H5.5146ZM13.9996 18.341C13.9996 19.24 13.0836 20 11.9996 20C10.9156 20 9.9996 19.24 9.9996 18.341V18H13.9996V18.341ZM20.5206 15.208L18.7196 13.404V8.93702C18.7196 5.45602 16.2176 2.49902 12.8996 2.06002C10.9776 1.80402 9.0376 2.39102 7.5826 3.66702C6.1186 4.94902 5.2806 6.79302 5.2806 8.72702L5.2796 13.404L3.4786 15.208C3.0096 15.678 2.8706 16.377 3.1246 16.99C3.3796 17.604 3.9726 18 4.6366 18H7.9996V18.341C7.9996 20.359 9.7936 22 11.9996 22C14.2056 22 15.9996 20.359 15.9996 18.341V18H19.3626C20.0266 18 20.6186 17.604 20.8726 16.991C21.1276 16.377 20.9896 15.677 20.5206 15.208Z" fill="white"/>
</mask>
<g mask="url(#mask0_1_101)">
<rect width="24" height="24" fill="#707C97"/>
</g>
</svg>
