<svg width="119" height="24" viewBox="0 0 119 24" fill="none" xmlns="http://www.w3.org/2000/svg">
<path d="M50.0703 14.0234C50.0703 13.8203 50.0391 13.638 49.9766 13.4766C49.9193 13.3099 49.8099 13.1589 49.6484 13.0234C49.487 12.8828 49.2604 12.7448 48.9688 12.6094C48.6771 12.474 48.2995 12.3333 47.8359 12.1875C47.3203 12.0208 46.8307 11.8333 46.3672 11.625C45.9089 11.4167 45.5026 11.1745 45.1484 10.8984C44.7995 10.6172 44.5234 10.2917 44.3203 9.92188C44.1224 9.55208 44.0234 9.1224 44.0234 8.63281C44.0234 8.15885 44.1276 7.72917 44.3359 7.34375C44.5443 6.95312 44.8359 6.61979 45.2109 6.34375C45.5859 6.0625 46.0286 5.84635 46.5391 5.69531C47.0547 5.54427 47.6198 5.46875 48.2344 5.46875C49.0729 5.46875 49.8047 5.61979 50.4297 5.92188C51.0547 6.22396 51.5391 6.63802 51.8828 7.16406C52.2318 7.6901 52.4062 8.29167 52.4062 8.96875H50.0781C50.0781 8.63542 50.0078 8.34375 49.8672 8.09375C49.7318 7.83854 49.5234 7.63802 49.2422 7.49219C48.9661 7.34635 48.6172 7.27344 48.1953 7.27344C47.7891 7.27344 47.4505 7.33594 47.1797 7.46094C46.9089 7.58073 46.7057 7.74479 46.5703 7.95312C46.4349 8.15625 46.3672 8.38542 46.3672 8.64062C46.3672 8.83333 46.4141 9.00781 46.5078 9.16406C46.6068 9.32031 46.7526 9.46615 46.9453 9.60156C47.138 9.73698 47.375 9.86458 47.6562 9.98438C47.9375 10.1042 48.263 10.2214 48.6328 10.3359C49.2526 10.5234 49.7969 10.7344 50.2656 10.9688C50.7396 11.2031 51.1354 11.4661 51.4531 11.7578C51.7708 12.0495 52.0104 12.3802 52.1719 12.75C52.3333 13.1198 52.4141 13.5391 52.4141 14.0078C52.4141 14.5026 52.3177 14.9453 52.125 15.3359C51.9323 15.7266 51.6536 16.0573 51.2891 16.3281C50.9245 16.599 50.4896 16.8047 49.9844 16.9453C49.4792 17.0859 48.9141 17.1562 48.2891 17.1562C47.7266 17.1562 47.1719 17.0833 46.625 16.9375C46.0781 16.7865 45.5807 16.5599 45.1328 16.2578C44.6901 15.9557 44.3359 15.5703 44.0703 15.1016C43.8047 14.6328 43.6719 14.0781 43.6719 13.4375H46.0234C46.0234 13.7917 46.0781 14.0911 46.1875 14.3359C46.2969 14.5807 46.4505 14.7786 46.6484 14.9297C46.8516 15.0807 47.0911 15.1901 47.3672 15.2578C47.6484 15.3255 47.9557 15.3594 48.2891 15.3594C48.6953 15.3594 49.0286 15.3021 49.2891 15.1875C49.5547 15.0729 49.75 14.9141 49.875 14.7109C50.0052 14.5078 50.0703 14.2786 50.0703 14.0234ZM61.6406 15.1719V17H55.5859V15.1719H61.6406ZM56.3516 5.625V17H54.0078V5.625H56.3516ZM60.8516 10.2578V12.0391H55.5859V10.2578H60.8516ZM61.6328 5.625V7.46094H55.5859V5.625H61.6328ZM68.25 5.625V17H65.9141V5.625H68.25ZM71.75 5.625V7.46094H62.4688V5.625H71.75ZM78.2969 5.625V17H75.9609V5.625H78.2969ZM81.7969 5.625V7.46094H72.5156V5.625H81.7969ZM85.625 5.625V17H83.2891V5.625H85.625ZM97.0781 5.625V17H94.7344L90.1641 9.375V17H87.8203V5.625H90.1641L94.7422 13.2578V5.625H97.0781ZM108.133 11.0547V15.5625C107.956 15.776 107.682 16.0078 107.312 16.2578C106.943 16.5026 106.466 16.7135 105.883 16.8906C105.299 17.0677 104.594 17.1562 103.766 17.1562C103.031 17.1562 102.362 17.0365 101.758 16.7969C101.154 16.5521 100.633 16.1953 100.195 15.7266C99.763 15.2578 99.4297 14.6849 99.1953 14.0078C98.9609 13.3255 98.8438 12.5469 98.8438 11.6719V10.9609C98.8438 10.0859 98.9557 9.30729 99.1797 8.625C99.4089 7.94271 99.7344 7.36719 100.156 6.89844C100.578 6.42969 101.081 6.07292 101.664 5.82812C102.247 5.58333 102.896 5.46094 103.609 5.46094C104.599 5.46094 105.411 5.6224 106.047 5.94531C106.682 6.26302 107.167 6.70573 107.5 7.27344C107.839 7.83594 108.047 8.48177 108.125 9.21094H105.852C105.794 8.82552 105.685 8.48958 105.523 8.20312C105.362 7.91667 105.13 7.69271 104.828 7.53125C104.531 7.36979 104.146 7.28906 103.672 7.28906C103.281 7.28906 102.932 7.36979 102.625 7.53125C102.323 7.6875 102.068 7.91927 101.859 8.22656C101.651 8.53385 101.492 8.91406 101.383 9.36719C101.273 9.82031 101.219 10.3464 101.219 10.9453V11.6719C101.219 12.2656 101.276 12.7917 101.391 13.25C101.505 13.7031 101.674 14.0859 101.898 14.3984C102.128 14.7057 102.409 14.9375 102.742 15.0938C103.076 15.25 103.464 15.3281 103.906 15.3281C104.276 15.3281 104.583 15.2969 104.828 15.2344C105.078 15.1719 105.279 15.0964 105.43 15.0078C105.586 14.9141 105.706 14.8255 105.789 14.7422V12.7266H103.648V11.0547H108.133ZM115.945 14.0234C115.945 13.8203 115.914 13.638 115.852 13.4766C115.794 13.3099 115.685 13.1589 115.523 13.0234C115.362 12.8828 115.135 12.7448 114.844 12.6094C114.552 12.474 114.174 12.3333 113.711 12.1875C113.195 12.0208 112.706 11.8333 112.242 11.625C111.784 11.4167 111.378 11.1745 111.023 10.8984C110.674 10.6172 110.398 10.2917 110.195 9.92188C109.997 9.55208 109.898 9.1224 109.898 8.63281C109.898 8.15885 110.003 7.72917 110.211 7.34375C110.419 6.95312 110.711 6.61979 111.086 6.34375C111.461 6.0625 111.904 5.84635 112.414 5.69531C112.93 5.54427 113.495 5.46875 114.109 5.46875C114.948 5.46875 115.68 5.61979 116.305 5.92188C116.93 6.22396 117.414 6.63802 117.758 7.16406C118.107 7.6901 118.281 8.29167 118.281 8.96875H115.953C115.953 8.63542 115.883 8.34375 115.742 8.09375C115.607 7.83854 115.398 7.63802 115.117 7.49219C114.841 7.34635 114.492 7.27344 114.07 7.27344C113.664 7.27344 113.326 7.33594 113.055 7.46094C112.784 7.58073 112.581 7.74479 112.445 7.95312C112.31 8.15625 112.242 8.38542 112.242 8.64062C112.242 8.83333 112.289 9.00781 112.383 9.16406C112.482 9.32031 112.628 9.46615 112.82 9.60156C113.013 9.73698 113.25 9.86458 113.531 9.98438C113.812 10.1042 114.138 10.2214 114.508 10.3359C115.128 10.5234 115.672 10.7344 116.141 10.9688C116.615 11.2031 117.01 11.4661 117.328 11.7578C117.646 12.0495 117.885 12.3802 118.047 12.75C118.208 13.1198 118.289 13.5391 118.289 14.0078C118.289 14.5026 118.193 14.9453 118 15.3359C117.807 15.7266 117.529 16.0573 117.164 16.3281C116.799 16.599 116.365 16.8047 115.859 16.9453C115.354 17.0859 114.789 17.1562 114.164 17.1562C113.602 17.1562 113.047 17.0833 112.5 16.9375C111.953 16.7865 111.456 16.5599 111.008 16.2578C110.565 15.9557 110.211 15.5703 109.945 15.1016C109.68 14.6328 109.547 14.0781 109.547 13.4375H111.898C111.898 13.7917 111.953 14.0911 112.062 14.3359C112.172 14.5807 112.326 14.7786 112.523 14.9297C112.727 15.0807 112.966 15.1901 113.242 15.2578C113.523 15.3255 113.831 15.3594 114.164 15.3594C114.57 15.3594 114.904 15.3021 115.164 15.1875C115.43 15.0729 115.625 14.9141 115.75 14.7109C115.88 14.5078 115.945 14.2786 115.945 14.0234Z" fill="#707C97"/>
<path fill-rule="evenodd" clip-rule="evenodd" d="M11.3745 20H12.6255V19.233C12.6255 18.298 13.2005 17.458 14.0895 17.091C15.0095 16.708 16.0145 16.896 16.6765 17.562L17.2155 18.103L18.1035 17.215L17.5585 16.671C16.8955 16.009 16.7085 15.005 17.0815 14.114C17.0815 14.114 17.0825 14.113 17.0825 14.112L17.0935 14.084C17.4575 13.201 18.2985 12.625 19.2335 12.625H19.9995V11.375H19.2335C18.2985 11.375 17.4575 10.8 17.0915 9.911C16.7065 8.991 16.8955 7.986 17.5615 7.323L18.1025 6.784L17.2155 5.897L16.6705 6.442C16.0085 7.104 15.0055 7.291 14.1145 6.919C13.2015 6.542 12.6255 5.702 12.6255 4.767V4H11.3745V4.767C11.3745 5.702 10.7995 6.542 9.91051 6.909C8.99151 7.294 7.98651 7.105 7.32351 6.438L6.78451 5.897L5.89651 6.785L6.44151 7.329C7.10351 7.991 7.29151 8.995 6.91851 9.886C6.54251 10.799 5.70151 11.375 4.76651 11.375H3.99951V12.625H4.76651C5.70151 12.625 6.54251 13.2 6.90851 14.089C7.29351 15.009 7.10451 16.014 6.43851 16.677L5.89751 17.216L6.78451 18.103L7.32951 17.558C7.99151 16.896 8.99451 16.709 9.88551 17.081C10.7985 17.458 11.3745 18.298 11.3745 19.233V20ZM12.9425 22H11.0505C10.1265 22 9.37451 21.248 9.37451 20.324V19.233C9.37451 19.086 9.25751 18.985 9.14751 18.94C9.00351 18.881 8.84951 18.869 8.74351 18.972L7.97351 19.743C7.31751 20.397 6.25151 20.399 5.59651 19.743L4.25651 18.403C3.93851 18.085 3.76451 17.663 3.76451 17.213C3.76551 16.764 3.94051 16.342 4.25951 16.024L5.02751 15.259C5.13251 15.154 5.12151 15 5.07451 14.889C5.01451 14.742 4.91451 14.625 4.76651 14.625H3.68251C2.75451 14.625 1.99951 13.871 1.99951 12.943V11.051C1.99951 10.126 2.75151 9.375 3.67651 9.375H4.76651C4.91351 9.375 5.01451 9.257 5.05951 9.147C5.11951 9.003 5.13151 8.848 5.02751 8.744L4.25651 7.974C3.60251 7.317 3.60251 6.251 4.25651 5.597L5.59651 4.257C5.91451 3.939 6.33551 3.765 6.78451 3.765H6.78651C7.23551 3.765 7.65851 3.94 7.97551 4.259L8.74051 5.028C8.84551 5.134 9.00051 5.122 9.11151 5.075C9.25751 5.014 9.37451 4.914 9.37451 4.767V3.683C9.37451 2.755 10.1295 2 11.0575 2H12.9495C13.8735 2 14.6255 2.752 14.6255 3.676V4.767C14.6255 4.914 14.7425 5.015 14.8525 5.06C14.9975 5.12 15.1515 5.133 15.2565 5.028L16.0265 4.257C16.6825 3.603 17.7485 3.601 18.4035 4.257L19.7445 5.598C20.0625 5.915 20.2365 6.337 20.2355 6.787C20.2355 7.235 20.0605 7.658 19.7415 7.975L18.9725 8.741C18.8675 8.846 18.8785 9 18.9255 9.111C18.9855 9.258 19.0855 9.375 19.2335 9.375H20.3175C21.2455 9.375 21.9995 10.129 21.9995 11.057V12.949C21.9995 13.874 21.2485 14.625 20.3235 14.625H19.2335C19.0865 14.625 18.9855 14.743 18.9405 14.853C18.9395 14.854 18.9275 14.884 18.9265 14.886C18.8805 14.997 18.8685 15.152 18.9725 15.256L19.7435 16.026C20.3975 16.683 20.3975 17.749 19.7435 18.403L18.4035 19.743C18.0855 20.061 17.6645 20.235 17.2155 20.235H17.2135C16.7645 20.235 16.3415 20.06 16.0245 19.741L15.2595 18.972C15.1545 18.867 14.9985 18.879 14.8885 18.925C14.7425 18.986 14.6255 19.086 14.6255 19.233V20.317C14.6255 21.245 13.8705 22 12.9425 22ZM12 10.5C11.173 10.5 10.5 11.173 10.5 12C10.5 12.827 11.173 13.5 12 13.5C12.827 13.5 13.5 12.827 13.5 12C13.5 11.173 12.827 10.5 12 10.5ZM12 15.5C10.07 15.5 8.50001 13.93 8.50001 12C8.50001 10.07 10.07 8.5 12 8.5C13.93 8.5 15.5 10.07 15.5 12C15.5 13.93 13.93 15.5 12 15.5Z" fill="#231F20"/>
<mask id="mask0_1_135" style="mask-type:luminance" maskUnits="userSpaceOnUse" x="1" y="2" width="21" height="20">
<path fill-rule="evenodd" clip-rule="evenodd" d="M11.3745 20H12.6255V19.233C12.6255 18.298 13.2005 17.458 14.0895 17.091C15.0095 16.708 16.0145 16.896 16.6765 17.562L17.2155 18.103L18.1035 17.215L17.5585 16.671C16.8955 16.009 16.7085 15.005 17.0815 14.114C17.0815 14.114 17.0825 14.113 17.0825 14.112L17.0935 14.084C17.4575 13.201 18.2985 12.625 19.2335 12.625H19.9995V11.375H19.2335C18.2985 11.375 17.4575 10.8 17.0915 9.911C16.7065 8.991 16.8955 7.986 17.5615 7.323L18.1025 6.784L17.2155 5.897L16.6705 6.442C16.0085 7.104 15.0055 7.291 14.1145 6.919C13.2015 6.542 12.6255 5.702 12.6255 4.767V4H11.3745V4.767C11.3745 5.702 10.7995 6.542 9.91051 6.909C8.99151 7.294 7.98651 7.105 7.32351 6.438L6.78451 5.897L5.89651 6.785L6.44151 7.329C7.10351 7.991 7.29151 8.995 6.91851 9.886C6.54251 10.799 5.70151 11.375 4.76651 11.375H3.99951V12.625H4.76651C5.70151 12.625 6.54251 13.2 6.90851 14.089C7.29351 15.009 7.10451 16.014 6.43851 16.677L5.89751 17.216L6.78451 18.103L7.32951 17.558C7.99151 16.896 8.99451 16.709 9.88551 17.081C10.7985 17.458 11.3745 18.298 11.3745 19.233V20ZM12.9425 22H11.0505C10.1265 22 9.37451 21.248 9.37451 20.324V19.233C9.37451 19.086 9.25751 18.985 9.14751 18.94C9.00351 18.881 8.84951 18.869 8.74351 18.972L7.97351 19.743C7.31751 20.397 6.25151 20.399 5.59651 19.743L4.25651 18.403C3.93851 18.085 3.76451 17.663 3.76451 17.213C3.76551 16.764 3.94051 16.342 4.25951 16.024L5.02751 15.259C5.13251 15.154 5.12151 15 5.07451 14.889C5.01451 14.742 4.91451 14.625 4.76651 14.625H3.68251C2.75451 14.625 1.99951 13.871 1.99951 12.943V11.051C1.99951 10.126 2.75151 9.375 3.67651 9.375H4.76651C4.91351 9.375 5.01451 9.257 5.05951 9.147C5.11951 9.003 5.13151 8.848 5.02751 8.744L4.25651 7.974C3.60251 7.317 3.60251 6.251 4.25651 5.597L5.59651 4.257C5.91451 3.939 6.33551 3.765 6.78451 3.765H6.78651C7.23551 3.765 7.65851 3.94 7.97551 4.259L8.74051 5.028C8.84551 5.134 9.00051 5.122 9.11151 5.075C9.25751 5.014 9.37451 4.914 9.37451 4.767V3.683C9.37451 2.755 10.1295 2 11.0575 2H12.9495C13.8735 2 14.6255 2.752 14.6255 3.676V4.767C14.6255 4.914 14.7425 5.015 14.8525 5.06C14.9975 5.12 15.1515 5.133 15.2565 5.028L16.0265 4.257C16.6825 3.603 17.7485 3.601 18.4035 4.257L19.7445 5.598C20.0625 5.915 20.2365 6.337 20.2355 6.787C20.2355 7.235 20.0605 7.658 19.7415 7.975L18.9725 8.741C18.8675 8.846 18.8785 9 18.9255 9.111C18.9855 9.258 19.0855 9.375 19.2335 9.375H20.3175C21.2455 9.375 21.9995 10.129 21.9995 11.057V12.949C21.9995 13.874 21.2485 14.625 20.3235 14.625H19.2335C19.0865 14.625 18.9855 14.743 18.9405 14.853C18.9395 14.854 18.9275 14.884 18.9265 14.886C18.8805 14.997 18.8685 15.152 18.9725 15.256L19.7435 16.026C20.3975 16.683 20.3975 17.749 19.7435 18.403L18.4035 19.743C18.0855 20.061 17.6645 20.235 17.2155 20.235H17.2135C16.7645 20.235 16.3415 20.06 16.0245 19.741L15.2595 18.972C15.1545 18.867 14.9985 18.879 14.8885 18.925C14.7425 18.986 14.6255 19.086 14.6255 19.233V20.317C14.6255 21.245 13.8705 22 12.9425 22ZM12 10.5C11.173 10.5 10.5 11.173 10.5 12C10.5 12.827 11.173 13.5 12 13.5C12.827 13.5 13.5 12.827 13.5 12C13.5 11.173 12.827 10.5 12 10.5ZM12 15.5C10.07 15.5 8.50001 13.93 8.50001 12C8.50001 10.07 10.07 8.5 12 8.5C13.93 8.5 15.5 10.07 15.5 12C15.5 13.93 13.93 15.5 12 15.5Z" fill="white"/>
</mask>
<g mask="url(#mask0_1_135)">
<rect width="24" height="24" fill="#707C97"/>
</g>
</svg>
